<?xml version="1.0" encoding="UTF-8"?>
<svg id="Logo_x2F_couleurs" xmlns="http://www.w3.org/2000/svg" version="1.1" viewBox="0 0 1000 210.3">
  
  <defs>
    
  </defs>
  <g>
    <path class="st0" d="M179.5,138.1h-85.3c-.6,0-1-.5-1-1V22c0-.6-.5-1-1-1h-30.8c-.6,0-1,.4-1,1v144.6c0,.6.5,1,1,1h118.1c.6,0,1-.5,1-1v-27.5c0-.6-.5-1-1-1Z"></path>
    <path class="st0" d="M252,55.8c-37.4,0-62.6,22.1-62.6,57.1s25.2,56.9,62.6,56.9,62.6-22.3,62.6-56.9-25.2-57.1-62.6-57.1ZM252,140.7c-22.3,0-30-8.5-30-27.8s7.7-28.2,30-28.2,30,9,30,28.2-7.9,27.8-30,27.8Z"></path>
    <path class="st0" d="M414.1,106.1h30.6c.5,0,1-.5,1-1v-2.1c0-28.4-24.1-47.3-59.3-47.3s-61.7,22.1-61.7,57.1,24.1,56.9,61.7,56.9,59.3-19,59.3-47.3v-2.1c0-.6-.5-1-1-1h-30.6c-.5,0-1,.5-1,1v.7c0,14-10.3,19-27.4,19s-28.4-7.2-28.4-27.4,9-27.6,28.4-27.6,27.4,5,27.4,19v.7c0,.6.5,1,1,1Z"></path>
    <path class="st0" d="M516.8,55.8c-36.1,0-58.9,18.8-58.9,45.9v.7h33v-.9c0-12.5,6.8-16.9,23.4-16.9s23.9,3.9,23.9,18.2v3.2c0,.5-.4.9-.9,1l-46.1,4.7c-23.4,2.4-35.4,12.5-35.4,28.7s14.2,29.3,37.9,29.3,39.2-10,44.4-26.6c.1-.4.5-.7,1-.7s1,.5,1,1v23.1c0,.6.4,1,1,1h28.6c.6,0,1-.5,1-1v-63.3c0-28.7-17.3-47.5-53.8-47.5ZM503,146.6c-9.6,0-14.2-2.4-14.2-8.3s3.5-7.4,11.4-8.1l36.9-4.2c.6,0,1.2.4,1.1,1.1-1.4,14.6-13.4,19.6-35.1,19.6Z"></path>
    <path class="st0" d="M619.1,21h-30.8c-.6,0-1,.4-1,1v144.6c0,.6.5,1,1,1h30.8c.6,0,1-.5,1-1V22c0-.6-.5-1-1-1Z"></path>
    <path class="st0" d="M657.8,71.1c-1.1,1.1-2.5,1.6-4,1.6s-2.9-.6-4-1.6l-12.4-12.4v108c0,.6.4,1,1,1h30.8c.6,0,1-.5,1-1V58.7l-12.4,12.4Z"></path>
    <path class="st0" d="M798.3,139h-53.1l-19.7,1.5c-.6,0-1.1-.4-1.1-1v-.5c0-.4.2-.7.5-.9l20.3-12.6s0,0,0,0l50.3-38.8c.2-.2.4-.5.4-.8v-26.7c0-.6-.5-1-1-1h-107.8c-.6,0-1,.4-1,1v26.9c0,.6.5,1,1,1h42.8l21.9-1.2c.6,0,1.1.4,1.1,1v.6c0,.3-.2.7-.5.9l-22.5,14.1s0,0,0,0l-46.6,37.1c-.2.2-.4.5-.4.8v26.5c0,.6.5,1,1,1h114.4c.6,0,1-.5,1-1v-26.6c0-.6-.5-1-1-1Z"></path>
    <path class="st0" d="M938.6,58h-34.3c-.4,0-.8.2-.9.6l-20.5,49.2s0,0,0,0l-8.5,25.3c-.1.4-.5.7-1,.7h-.8c-.4,0-.8-.3-1-.7l-8.9-25.1s0,0,0,0l-22.9-49.5c-.2-.4-.5-.6-.9-.6h-34.9c-.8,0-1.2.8-.9,1.4l52.7,108.2c.1.3.1.6,0,.9-2.2,4.5-5.7,6.6-13.6,6.6h-25.9c-.6,0-1,.4-1,1v27.7c0,.6.5,1,1,1h16.9c27.6,0,42.2-6.4,52.7-29.3l53.6-116.1c.3-.7-.2-1.4-.9-1.4Z"></path>
  </g>
  <path class="st1" d="M670,12.2c-4.5-4.5-10.4-6.7-16.3-6.7s-11.8,2.2-16.3,6.7c-8.9,8.9-9,23.4-.1,32.4,0,0,0,.1.1.2l15.1,15.1c.6.6,1.7.6,2.3,0l15.1-15.1c0,0,.1-.1.1-.2,4.4-4.5,6.6-10.3,6.6-16.1s-2.2-11.8-6.7-16.3Z"></path>
</svg>