<svg width="732" height="772" viewBox="0 0 732 772" fill="none" xmlns="http://www.w3.org/2000/svg">
<path d="M563.344 134.417C548.845 146.499 549.248 166.636 551.262 175.195L593.549 222.014H638.858C694.438 218.39 709.339 174.188 709.843 152.54C719.509 142.874 727.966 122.334 730.987 113.272C733.403 89.1076 701.788 92.1282 685.678 96.6591L675.106 87.5973C679.939 50.1418 649.934 39.771 634.328 39.2676C583.581 42.8923 565.861 104.211 563.344 134.417Z" fill="white"></path>
<path d="M649.43 428.925C649.43 629.947 502.931 756.661 299.04 756.661C118.871 756.661 0 581.618 0 380.595C0 179.573 149.077 36.2461 329.246 36.2461C509.415 36.2461 649.43 227.903 649.43 428.925Z" fill="white"></path>
<path d="M620.656 340.979C654.862 526.847 567.431 692.471 420.332 719.542C273.172 746.625 117.105 619.863 82.9124 434.071C48.7049 248.196 137 79.2671 284.093 52.1968C355.031 39.1355 430.596 64.8337 492.763 117.115C554.919 169.388 603.574 248.156 620.656 340.979Z" fill="#ACA5E5" stroke="#151515" stroke-width="3"></path>
<path d="M585.412 346.871C614.286 503.762 527.093 644.183 403.728 666.887C280.507 689.564 163.533 581.936 134.627 424.868C105.741 267.911 188.833 123.149 312.143 100.456C371.562 89.5153 432.617 111.813 482.497 156.564C532.373 201.311 570.977 268.435 585.412 346.871Z" fill="#E1C1CE" stroke="#151515" stroke-width="3"></path>
<path d="M523.056 348.223C549.937 459.115 494.409 562.435 408.723 583.206C323.177 603.944 236.38 531.713 209.456 420.646C182.559 309.691 235.035 203.437 320.667 182.678C361.915 172.675 405.742 186.255 442.697 216.306C479.646 246.352 509.619 292.793 523.056 348.223Z" fill="#ACA5E5" stroke="#151515" stroke-width="3"></path>
<path d="M331.359 222.882L331.359 222.882C362.663 215.291 396.262 226.707 424.865 251.426C453.457 276.137 476.918 314.041 487.828 359.048C509.668 449.142 468.273 531.92 403.201 547.694C370.698 555.573 337.707 544.741 310.033 520.592C282.352 496.438 260.074 459.012 249.158 413.981C238.252 368.991 242.521 325.112 257.68 290.533C272.841 255.948 298.836 230.766 331.359 222.882Z" fill="#E1C1CE" stroke="#151515" stroke-width="3"></path>
<path d="M427.73 382.937C427.73 404.684 423.126 424.359 413.301 438.551C403.527 452.671 388.51 461.483 367.307 461.483C340.384 461.483 293.292 437.906 293.292 375.386C293.292 352.709 299.534 333.047 310.557 319.089C321.557 305.16 337.365 296.84 356.735 296.84C398.967 296.84 427.73 337.532 427.73 382.937Z" fill="#ACA5E5" stroke="#151515" stroke-width="3"></path>
<g style="mix-blend-mode:hard-light">
<path d="M498.281 688.072L357.823 401.115L368.395 396.584L564.735 626.15C549.632 650.315 528.487 669.949 498.281 688.072Z" fill="#4F4B6C" fill-opacity="0.5"></path>
</g>
<path d="M249.08 61.2949C247.977 61.6785 246.867 62.0719 245.749 62.4754C177.99 88.3273 -1.69747 263.541 111.635 520.427C202.253 725.828 373.924 734.89 448.432 712.236C232.157 785.938 109.72 691.091 60.2916 570.267C-68.956 254.329 129.445 104.437 245.749 62.4754C246.892 62.0393 248.003 61.6457 249.08 61.2949Z" fill="#7E77E2"></path>
<path d="M249.08 61.2949C133.29 101.57 -70.1986 251.291 60.2916 570.267C109.72 691.091 232.157 785.938 448.432 712.236C373.924 734.89 202.253 725.828 111.635 520.427C-3.60926 259.208 184.136 82.4392 249.08 61.2949Z" stroke="#151515" stroke-width="3"></path>
<path d="M372.419 376.048L380.523 385.037L361.608 402.092C360.993 402.647 360.044 402.598 359.489 401.982L353.394 395.222C352.839 394.606 352.888 393.658 353.503 393.103L372.419 376.048Z" fill="#E1D53C" stroke="#151515" stroke-width="3"></path>
<path d="M663.859 86.4686L681.862 105.878C682.047 106.078 682.039 106.389 681.843 106.578L388.401 389.61C388.205 389.799 387.893 389.796 387.7 389.603L369.383 371.286C369.185 371.089 369.188 370.767 369.389 370.573L663.145 86.4492C663.347 86.2544 663.669 86.2631 663.859 86.4686Z" fill="#E1D53C" stroke="#151515" stroke-width="3"></path>
<path d="M590.409 121.708C627.865 89.0856 656.359 100.06 665.925 109.626L575.306 188.161C557.183 166.413 577.824 134.797 590.409 121.708Z" fill="#D9931F" stroke="#151515" stroke-width="3"></path>
<path d="M587.389 200.245L673.476 115.668C702.172 115.668 714.254 174.57 673.476 200.245C640.853 220.785 602.492 208.803 587.389 200.245Z" fill="#BD8836" stroke="#151515" stroke-width="3"></path>
<path d="M718.785 111.136C717.577 99.0531 695.124 102.074 684.048 105.094L671.5 117C689 114.5 699.655 133.79 699.151 144.362C706.199 138.321 719.993 123.218 718.785 111.136Z" fill="#D9931F" stroke="#151515" stroke-width="3"></path>
<path d="M628.168 53.743C671.966 44.6848 676.497 87.9894 667.435 108.127L665.925 109.628C659.381 102.58 641.458 91.5042 616.085 103.587C590.712 115.669 580.845 129.762 579.838 135.303C581.046 78.5157 613.568 57.7711 628.168 53.743Z" fill="#D9931F" stroke="#151515" stroke-width="3"></path>
<path d="M702.217 110.426L697.641 103.582C706.702 103.583 713.897 102.869 717.275 109.624C720.295 115.666 711.233 132.279 700.661 141.312C700.661 135.271 698.647 129.733 697.641 127.719L702.703 115.063C703.316 113.532 703.134 111.797 702.217 110.426Z" fill="#BD8836"></path>
</svg>