<svg width="689" height="769" viewBox="0 0 689 769" fill="none" xmlns="http://www.w3.org/2000/svg">
<path d="M-2.41166e-05 91.8236C-1.08327e-05 41.2453 41.2435 0.371563 91.8198 0.827205L598.782 5.39443C648.718 5.84431 688.962 46.4527 688.962 96.3907V538.997C688.962 589.255 648.22 629.997 597.962 629.997H515.17H445.343L336.297 759.398C332.554 763.84 325.646 763.625 322.186 758.959L226.551 629.997H90.9998C40.7419 629.997 -0.000154762 589.255 -0.000141562 538.997L-2.41166e-05 91.8236Z" fill="white"></path>
<path d="M320.348 721.707L244.387 593.697C239.047 584.698 245.532 573.307 255.996 573.307L421.246 573.307C432.158 573.307 438.561 585.581 432.319 594.531L343.031 722.541C337.415 730.592 325.357 730.148 320.348 721.707Z" fill="#B64045" stroke="#151515" stroke-width="3"></path>
<rect x="26.3271" y="31.7578" width="630.1" height="574.238" rx="68.5" fill="#B64045" stroke="#151515" stroke-width="3"></rect>
<path d="M238.964 581.895L268.446 629.998L338.274 626.894L341.377 581.895H238.964Z" fill="#B64045"></path>
<rect x="57.3613" y="48.0508" width="608.376" height="543.204" rx="75.5" fill="#F34C53" stroke="#151515" stroke-width="3"></rect>
<path d="M343.2 694.565L280.086 588.267C274.743 579.268 281.228 567.875 291.694 567.875L428.995 567.875C439.908 567.875 446.311 580.152 440.066 589.101L365.879 695.399C360.263 703.446 348.21 703.002 343.2 694.565Z" fill="#F34C53" stroke="#151515" stroke-width="3"></path>
<path d="M453.101 589.653C393.619 589.135 274.654 588.411 274.654 589.653L258.293 569.5L265.344 547.756H453.101V589.653Z" fill="#F34C53"></path>
<g style="mix-blend-mode:multiply">
<path d="M164.657 363.704C144.631 309.038 119.194 212.692 226.361 154.24C297.807 128.844 354.409 165.25 375.504 194.834C441.558 125.986 516.311 157.475 539.747 180.207C605.033 243.534 576.011 342.042 547.866 386.425C492.009 468.262 399.022 530.939 359.51 550.424C257.213 483.85 187.257 425.395 164.657 363.704Z" fill="#A8363B" fill-opacity="0.5"></path>
</g>
<path d="M174.388 355.158C154.361 300.491 128.924 204.145 236.091 145.693C307.537 120.297 364.14 156.703 385.234 186.287C451.289 117.439 526.042 148.928 549.478 171.661C614.763 234.987 585.742 333.495 557.597 377.878C501.739 459.715 408.752 522.392 369.241 541.877C266.944 475.303 196.987 416.848 174.388 355.158Z" fill="#FFAEB0"></path>
<path d="M395.219 204.145C393.034 198.73 389.725 192.585 385.234 186.287M385.234 186.287C364.14 156.703 307.537 120.297 236.091 145.693C128.924 204.145 154.361 300.491 174.388 355.158C196.987 416.848 266.944 475.303 369.241 541.877C408.752 522.392 501.739 459.715 557.597 377.878C585.742 333.495 614.763 234.987 549.478 171.661C526.042 148.928 451.289 117.439 385.234 186.287Z" stroke="#151515" stroke-width="3" stroke-linecap="round"></path>
<path d="M560.985 227.015C546.883 223.381 541.072 231.274 548.423 253.851C555.773 276.428 526.787 295.087 547.484 302.299C561.586 305.933 573.139 286.172 574.196 271.586C575.177 258.054 575.087 230.649 560.985 227.015Z" fill="#FFD8DE"></path>
<ellipse cx="542.804" cy="326.917" rx="12.2111" ry="8.14075" transform="rotate(-65.5597 542.804 326.917)" fill="#FFD8DE"></ellipse>
<g style="mix-blend-mode:multiply">
<path d="M222.203 233.178C270.197 136.387 357.277 174.294 394.818 205.347C365.747 146.888 310.904 136.586 287.116 138.742C188.999 134.311 145.16 239.859 159.771 288.591C161.525 332.361 186.638 386.363 226.349 429.844C273.438 478.556 335.217 517.983 369.233 540.272C560.837 428.236 594.936 322.691 586.82 251.246C580.032 320.917 517.153 409.686 440.749 447.682C379.626 478.078 332.334 454.637 316.328 439.117C203.721 339.322 206.659 260.243 222.203 233.178Z" fill="#EE7C7E" fill-opacity="0.2"></path>
</g>
<path d="M395.219 204.145C393.034 198.73 389.725 192.585 385.234 186.287M385.234 186.287C364.14 156.703 307.537 120.297 236.091 145.693C128.924 204.145 154.361 300.491 174.388 355.158C196.987 416.848 266.944 475.303 369.241 541.877C408.752 522.392 501.739 459.715 557.597 377.878C585.742 333.495 614.763 234.987 549.478 171.661C526.042 148.928 451.289 117.439 385.234 186.287Z" stroke="#151515" stroke-width="3" stroke-linecap="round"></path>
<path d="M329.231 164.494C320.027 171.865 322.319 179.463 340.516 185.666C358.714 191.868 356.725 219.71 371.449 209.803C380.653 202.431 373.461 185.349 364.524 177.581C356.233 170.373 338.434 157.122 329.231 164.494Z" fill="#FFD8DE"></path>
</svg>