<svg width="923" height="412" viewBox="0 0 923 412" fill="none" xmlns="http://www.w3.org/2000/svg">
<ellipse cx="467.08" cy="106.343" rx="2.83044" ry="14.5951" transform="rotate(-17.8648 467.08 106.343)" fill="#EDE388"></ellipse>
<ellipse cx="761.055" cy="145.16" rx="1.99301" ry="11.0041" transform="rotate(-11.6233 761.055 145.16)" fill="#EDE388"></ellipse>
<path d="M0 180.055C0 84.0078 77.5014 5.9569 173.546 5.27822L761.811 1.12135C849.593 0.501051 921.39 70.9032 922.492 158.68V158.68V158.68C922.492 249.735 850.796 324.647 759.829 328.64L747.59 329.177L703.188 388.803C702.095 390.27 699.954 390.426 698.66 389.132L695.652 386.123C694.341 384.813 692.167 384.993 691.089 386.501L675.092 408.896C674.084 410.308 672.092 410.573 670.75 409.473L604.052 354.836H174.781C78.252 354.836 0 276.583 0 180.055V180.055Z" fill="white"></path>
<ellipse cx="304.268" cy="142.506" rx="1.99301" ry="11.0041" transform="rotate(-11.6233 304.268 142.506)" fill="#EDE388"></ellipse>
<ellipse cx="163.514" cy="139.85" rx="1.99301" ry="11.0041" transform="rotate(-11.6233 163.514 139.85)" fill="#EDE388"></ellipse>
<path d="M622.252 142.104C623.477 148.057 623.595 153.062 622.517 153.284C621.439 153.506 619.572 148.86 618.348 142.907C617.123 136.955 617.005 131.949 618.083 131.727C619.161 131.506 621.028 136.151 622.252 142.104Z" fill="#EDE388"></path>
<path d="M185.473 26.5898H689.109C769.027 26.5898 833.184 92.5528 830.965 172.44L830.086 204.049C828.442 263.262 779.966 310.41 720.73 310.41C707.579 310.41 694.53 312.717 682.177 317.228L656.806 326.493C639.386 332.854 620.985 336.108 602.44 336.108H185.473C100.002 336.108 30.7139 266.82 30.7139 181.349C30.7139 95.8779 100.002 26.5898 185.473 26.5898Z" fill="#CCCCCC" stroke="#151515" stroke-width="3"></path>
<path d="M673.152 396.148L593.501 324.611C592.494 323.706 593.106 322.035 594.46 321.996L725.8 318.164C727.027 318.128 727.775 319.5 727.081 320.511L675.391 395.88C674.879 396.627 673.826 396.753 673.152 396.148Z" fill="#CCCCCC" stroke="#151515" stroke-width="3"></path>
<path d="M731.657 308.045L723.69 330.569L715.722 333.384L614.595 334.792H572.312L578.952 317.899L731.657 308.045Z" fill="#CCCCCC"></path>
<path d="M200.393 24.0039H748.107C828.68 24.0039 894 89.4278 894 170.004C894 250.58 828.68 316.004 748.107 316.004H200.393C119.82 316.004 54.5 250.58 54.5 170.004C54.5 89.4278 119.82 24.0039 200.393 24.0039Z" fill="#F4F4F4" stroke="#151515" stroke-width="3"></path>
<path d="M697.099 372.411L617.777 305.211C616.726 304.322 617.329 302.605 618.705 302.567L749.505 298.967C750.749 298.933 751.491 300.342 750.759 301.349L699.282 372.149C698.769 372.854 697.765 372.975 697.099 372.411Z" fill="#F4F4F4" stroke="#151515" stroke-width="3"></path>
<path d="M763 291.504L746.5 313.504L732.99 314.504H632.479H596.095L602.803 298.714L763 291.504Z" fill="#F4F4F4"></path>
<g style="mix-blend-mode:plus-darker">
<path d="M458.013 68.5115C458.904 65.7345 462.833 65.7345 463.725 68.5115L485.541 136.442C485.939 137.684 487.094 138.525 488.397 138.525H559.067C561.965 138.525 563.179 142.226 560.844 143.942L503.611 186.014C502.571 186.778 502.137 188.121 502.531 189.349L524.378 257.378C525.268 260.148 522.089 262.436 519.745 260.712L462.646 218.739C461.589 217.962 460.149 217.962 459.092 218.739L401.993 260.712C399.649 262.436 396.47 260.148 397.36 257.378L419.207 189.349C419.601 188.121 419.166 186.778 418.127 186.014L360.894 143.942C358.559 142.226 359.773 138.525 362.67 138.525H433.341C434.644 138.525 435.799 137.683 436.197 136.442L458.013 68.5115Z" fill="#B4AB3E" fill-opacity="0.5"></path>
<path d="M290.607 108.234C291.505 105.47 295.415 105.47 296.313 108.234L312.165 157.02C312.566 158.256 313.718 159.093 315.018 159.093H366.314C369.22 159.093 370.428 162.812 368.077 164.52L326.578 194.671C325.526 195.435 325.086 196.789 325.488 198.025L341.339 246.811C342.237 249.575 339.074 251.873 336.723 250.165L295.223 220.014C294.172 219.25 292.748 219.25 291.697 220.014L250.197 250.165C247.846 251.873 244.682 249.575 245.58 246.811L261.475 197.892C261.855 196.722 261.482 195.437 260.533 194.653L223.929 164.405C221.761 162.614 223.028 159.093 225.84 159.093H271.902C273.202 159.093 274.354 158.256 274.755 157.02L290.607 108.234Z" fill="#B4AB3E" fill-opacity="0.5"></path>
<path d="M136.458 108.234C137.356 105.47 141.267 105.47 142.165 108.234L158.016 157.02C158.418 158.256 159.57 159.093 160.869 159.093H212.166C215.072 159.093 216.28 162.812 213.929 164.52L172.429 194.671C171.378 195.435 170.938 196.789 171.339 198.025L187.191 246.811C188.089 249.575 184.926 251.873 182.574 250.165L141.075 220.014C140.023 219.25 138.6 219.25 137.548 220.014L96.0486 250.165C93.6974 251.873 90.534 249.575 91.432 246.811L107.283 198.025C107.685 196.789 107.245 195.435 106.194 194.671L64.6941 164.52C62.3429 162.812 63.5513 159.093 66.4574 159.093H117.754C119.053 159.093 120.205 158.256 120.607 157.02L136.458 108.234Z" fill="#B4AB3E" fill-opacity="0.5"></path>
<path d="M789.458 108.234C790.356 105.47 794.267 105.47 795.165 108.234L811.016 157.02C811.418 158.256 812.57 159.093 813.869 159.093H865.166C868.072 159.093 869.28 162.812 866.929 164.52L825.429 194.671C824.378 195.435 823.938 196.789 824.339 198.025L840.191 246.811C841.089 249.575 837.926 251.873 835.574 250.165L794.075 220.014C793.023 219.25 791.6 219.25 790.548 220.014L749.049 250.165C746.697 251.873 743.534 249.575 744.432 246.811L760.283 198.025C760.685 196.789 760.245 195.435 759.194 194.671L717.694 164.52C715.343 162.812 716.551 159.093 719.457 159.093H770.754C772.053 159.093 773.205 158.256 773.607 157.02L789.458 108.234Z" fill="#B4AB3E" fill-opacity="0.5"></path>
<path d="M626.458 108.234C627.356 105.47 631.267 105.47 632.165 108.234L648.016 157.02C648.418 158.256 649.57 159.093 650.869 159.093H702.166C705.072 159.093 706.28 162.812 703.929 164.52L662.429 194.671C661.378 195.435 660.938 196.789 661.339 198.025L677.191 246.811C678.089 249.575 674.926 251.873 672.574 250.165L631.075 220.014C630.023 219.25 628.6 219.25 627.548 220.014L586.049 250.165C583.697 251.873 580.534 249.575 581.432 246.811L597.283 198.025C597.685 196.789 597.245 195.435 596.194 194.671L554.694 164.52C552.343 162.812 553.551 159.093 556.457 159.093H607.754C609.053 159.093 610.205 158.256 610.607 157.02L626.458 108.234Z" fill="#B4AB3E" fill-opacity="0.5"></path>
</g>
<path d="M466.297 66.3119L488.112 134.243C488.71 136.104 490.442 137.367 492.397 137.367H563.067C564.516 137.367 565.123 139.217 563.956 140.076L506.722 182.147C505.163 183.293 504.511 185.307 505.103 187.149L526.95 255.178C527.395 256.563 525.805 257.707 524.633 256.846L467.534 214.873C465.948 213.707 463.789 213.707 462.204 214.873L405.104 256.846C403.932 257.707 402.343 256.563 402.788 255.178L424.635 187.149C425.226 185.307 424.574 183.293 423.016 182.147L365.782 140.076C364.615 139.217 365.222 137.367 366.67 137.367H437.341C439.296 137.367 441.027 136.104 441.625 134.243L463.441 66.3119C463.887 64.9234 465.851 64.9234 466.297 66.3119Z" fill="#E1D53C" stroke="#151515" stroke-width="3"></path>
<path d="M300.197 106.04L316.048 154.825C316.651 156.679 318.379 157.935 320.328 157.935H371.624C373.078 157.935 373.682 159.794 372.506 160.648L331.007 190.799C329.429 191.945 328.769 193.976 329.372 195.831L345.223 244.616C345.672 245.998 344.091 247.147 342.915 246.293L301.415 216.142C299.838 214.996 297.703 214.996 296.125 216.142L254.626 246.293C253.45 247.147 251.869 245.998 252.318 244.616L268.195 195.75C268.779 193.955 268.18 191.987 266.696 190.821L228.248 160.614C227.128 159.734 227.75 157.935 229.175 157.935H277.213C279.162 157.935 280.89 156.679 281.492 154.825L297.344 106.04C297.793 104.658 299.748 104.658 300.197 106.04Z" fill="#E1D53C" stroke="#151515" stroke-width="3"></path>
<path d="M146.738 106.04L162.59 154.825C163.192 156.679 164.92 157.935 166.869 157.935H214.41C215.83 157.935 216.455 159.725 215.344 160.609L177.361 190.825C175.892 191.993 175.303 193.951 175.883 195.737L191.765 244.616C192.214 245.998 190.632 247.147 189.456 246.293L147.957 216.142C146.38 214.996 144.244 214.996 142.667 216.142L101.167 246.293C99.9915 247.147 98.4098 245.998 98.8588 244.616L114.71 195.831C115.313 193.976 114.653 191.945 113.076 190.799L71.576 160.648C70.4004 159.794 71.0046 157.935 72.4577 157.935H123.754C125.703 157.935 127.431 156.679 128.034 154.825L143.885 106.04C144.334 104.658 146.289 104.658 146.738 106.04Z" fill="#E1D53C" stroke="#151515" stroke-width="3"></path>
<path d="M797.738 106.04L813.589 154.825C814.192 156.679 815.92 157.935 817.869 157.935H869.166C870.619 157.935 871.223 159.794 870.047 160.648L828.548 190.799C826.97 191.945 826.31 193.976 826.913 195.831L842.764 244.616C843.213 245.998 841.632 247.147 840.456 246.293L798.957 216.142C797.379 214.996 795.244 214.996 793.666 216.142L752.167 246.293C750.991 247.147 749.41 245.998 749.859 244.616L765.71 195.831C766.312 193.976 765.653 191.945 764.075 190.799L722.576 160.648C721.4 159.794 722.004 157.935 723.457 157.935H774.754C776.703 157.935 778.431 156.679 779.033 154.825L794.885 106.04C795.334 104.658 797.289 104.658 797.738 106.04Z" fill="#E1D53C" stroke="#151515" stroke-width="3"></path>
<path d="M634.738 106.04L650.589 154.825C651.192 156.679 652.92 157.935 654.869 157.935H706.166C707.619 157.935 708.223 159.794 707.047 160.648L665.548 190.799C663.97 191.945 663.31 193.976 663.913 195.831L679.764 244.616C680.213 245.998 678.632 247.147 677.456 246.293L635.957 216.142C634.379 214.996 632.244 214.996 630.666 216.142L589.167 246.293C587.991 247.147 586.41 245.998 586.859 244.616L602.71 195.831C603.312 193.976 602.653 191.945 601.075 190.799L559.576 160.648C558.4 159.794 559.004 157.935 560.457 157.935H611.754C613.703 157.935 615.431 156.679 616.033 154.825L631.885 106.04C632.334 104.658 634.289 104.658 634.738 106.04Z" fill="#E1D53C" stroke="#151515" stroke-width="3"></path>
<path d="M476.95 112.594C479.119 123.137 479.551 131.957 477.915 132.294C476.278 132.63 473.194 124.356 471.025 113.813C468.857 103.27 468.425 94.4498 470.061 94.1133C471.697 93.7768 474.782 102.051 476.95 112.594Z" fill="#EDE388"></path>
<path d="M802.121 141.282C803.346 147.235 803.464 152.24 802.386 152.462C801.308 152.684 799.442 148.038 798.217 142.085C796.993 136.132 796.874 131.127 797.952 130.905C799.03 130.683 800.897 135.329 802.121 141.282Z" fill="#EDE388"></path>
<path d="M642.121 141.282C643.346 147.235 643.464 152.24 642.386 152.462C641.308 152.684 639.442 148.038 638.217 142.085C636.993 136.132 636.874 131.127 637.952 130.905C639.03 130.683 640.897 135.329 642.121 141.282Z" fill="#EDE388"></path>
<path d="M306.121 141.282C307.346 147.235 307.464 152.24 306.386 152.462C305.308 152.684 303.442 148.038 302.217 142.085C300.993 136.132 300.874 131.127 301.952 130.905C303.03 130.683 304.897 135.329 306.121 141.282Z" fill="#EDE388"></path>
<path d="M154.121 141.282C155.346 147.235 155.464 152.24 154.386 152.462C153.308 152.684 151.442 148.038 150.217 142.085C148.993 136.132 148.874 131.127 149.952 130.905C151.03 130.683 152.897 135.329 154.121 141.282Z" fill="#EDE388"></path>
</svg>