<svg width="759" height="925" viewBox="0 0 759 925" fill="none" xmlns="http://www.w3.org/2000/svg">
<path d="M370.308 28.1466V107.262C308.088 124.424 317.564 174.31 330.08 197.107L323.375 214.539C308.625 205.153 271.347 184.771 240.237 178.334C201.35 170.289 165.145 181.016 151.735 214.539C141.008 241.358 162.463 264.154 174.531 272.2C154.149 300.091 169.615 316.004 179.895 320.473C144.494 339.783 108.825 369.641 95.4155 382.157C-47.2601 507.668 1.10298 670.458 43.119 736.164C131.084 883.131 297.897 921.66 370.308 922.554C591.294 942.936 689.451 830.924 710.906 772.369C832.126 591.075 694.367 419.703 610.335 356.679C595.317 334.151 607.653 307.064 615.699 296.337C696.155 271.663 672.465 219.903 650.563 197.107L696.155 107.262C687.663 85.8069 646.809 36.4604 551.334 10.7144C455.859 -15.0316 390.869 11.6084 370.308 28.1466Z" fill="white"></path>
<path d="M385.946 259.44V236.645C452.457 274.191 527.192 283.577 556.245 283.577L546.859 303.691C541.942 304.138 518.431 302.082 463.721 290.282C409.01 278.482 389.075 264.804 385.946 259.44Z" stroke="#151515" stroke-width="3"></path>
<path d="M347.059 174.961C345.987 130.978 375.219 119.982 389.969 119.982C451.653 133.839 583.601 166.915 617.929 188.37C652.257 209.825 646.536 240.22 639.384 252.735C616.856 285.99 575.466 287.153 557.587 283.577C509.313 284.649 446.289 263.463 420.811 252.735C396.674 245.137 348.132 218.944 347.059 174.961Z" fill="#92D3FF" stroke="#151515" stroke-width="3"></path>
<path d="M545.506 28.7986C478.995 7.34365 416.776 25.2228 393.98 36.8443C392.192 52.0419 420.81 91.8238 509.301 122.665C605.401 156.159 655.016 125.347 667.531 106.574C654.569 89.5885 612.016 50.2536 545.506 28.7986Z" fill="#E5A02B" stroke="#151515" stroke-width="3"></path>
<path d="M389.968 188.37C387.823 157.261 390.862 75.2848 392.65 38.1855C392.059 52.4889 414.564 89.4093 509.312 122.665C604.06 155.92 653.384 126.687 666.202 107.914L588.428 242.008C491.88 263.463 415.893 215.189 389.968 188.37Z" fill="#BE882F" stroke="#151515" stroke-width="3"></path>
<path d="M225.034 268.826C282.691 246.027 326.847 263.492 353.762 276.868C265.26 322.46 215.778 314.334 200.999 306.729C191.237 299.89 186.249 284.162 225.034 268.826Z" fill="#B3A8E6" stroke="#151515" stroke-width="3"></path>
<path d="M258.559 271.501C296.103 259.44 328.424 267.104 343.04 274.186C293.421 299.668 247.808 295.65 239.784 291.621C234.495 287.982 229.671 280.781 258.559 271.501Z" fill="white" stroke="#151515" stroke-width="3"></path>
<path d="M575.019 365.372C553.564 326.753 574.125 294.75 587.087 283.575C466.94 286.793 388.628 241.112 364.491 217.869C376.291 273.652 345.271 289.386 328.286 290.28C245.148 288.939 -13.6529 413.646 41.3255 633.56C85.3082 809.49 223.246 876.716 286.717 888.338C569.923 947.339 690.786 802.071 715.817 722.061C770.527 546.13 644.747 410.964 575.019 365.372Z" fill="#93D3FF" stroke="#151515" stroke-width="3"></path>
<ellipse cx="399.15" cy="398.223" rx="33.0729" ry="28.4641" transform="rotate(28.8702 399.15 398.223)" fill="#6BB8F0"></ellipse>
<path d="M571.373 469.885C557.261 495.479 511.669 503.448 478.921 485.392C446.173 467.336 431.066 431.951 445.178 406.356C459.289 380.761 504.881 372.793 537.629 390.848C570.377 408.904 585.485 444.29 571.373 469.885Z" fill="#6BB8F0"></path>
<ellipse cx="559.987" cy="405.908" rx="33.0729" ry="24.1369" transform="rotate(28.8702 559.987 405.908)" fill="#CDE9FF"></ellipse>
<path d="M231.738 197.758C287.521 191.322 334.543 242.456 351.082 268.828C233.079 281.701 185.7 255.419 176.76 240.668C171.843 229.047 175.955 204.195 231.738 197.758Z" fill="#B3A8E6" stroke="#151515" stroke-width="3"></path>
<path d="M644.747 437.785C743.44 741.373 510.654 871.802 381.924 899.068C579.042 877.612 671.566 827.998 713.135 693.904C746.39 586.629 681.4 478.46 644.747 437.785Z" fill="#6BB8F0"></path>
<path d="M237.102 212.508C267.944 212.509 311.161 238.617 320.241 252.749C255.455 259.647 209.328 240.996 204.42 233.092C201.721 226.864 206.282 212.506 237.102 212.508Z" fill="white" stroke="#151515" stroke-width="3"></path>
<path d="M459.696 427.057C643.137 453.875 679.026 550.201 682.293 579.924C709.111 823.975 511.993 854.369 431.537 865.544C374.324 870.46 234.151 851.061 131.167 734.132C28.1828 617.202 74.8475 495.892 111.053 449.853C145.381 360.814 271.966 365.372 317.557 386.828C387.286 426.52 419.469 427.057 459.696 427.057Z" fill="#B3A7E8" stroke="#151515" stroke-width="3"></path>
<path d="M588.626 263.299C588.899 270.146 577.696 277.396 565.803 277.872C553.909 278.348 544.046 273.183 543.772 266.336C543.498 259.489 554.701 252.238 566.595 251.763C578.488 251.287 588.352 256.452 588.626 263.299Z" fill="#6BB8F0"></path>
<ellipse cx="589.812" cy="258.696" rx="15.4744" ry="10.3054" transform="rotate(-3.86529 589.812 258.696)" fill="#CDE9FF"></ellipse>
<path d="M575.017 290.28C554.903 318.439 561.608 353.304 570.993 366.713C727.614 483.643 734.409 613.385 721 692.5C687.477 840.003 538.812 892.522 438.242 897.724C344.378 902.579 264.02 884.732 206.26 851.33C138.146 811.939 95.7797 755.991 76.1873 715.357C-35.1087 504.83 120.441 373.418 235.76 319.78C250.51 314.417 269.283 302.348 325.602 295.643C352.421 295.643 377.899 272.847 371.194 229.938" stroke="#C9EBFF" stroke-width="5"></path>
<path d="M316.217 388.171C235.761 355.991 152.175 390.905 131.167 421.299C149.941 461.08 204.919 550.022 318.899 550.022C423.094 550.022 468.637 571.03 478.47 578.182C590.036 645.765 659.944 609.918 680.952 583.546C670.224 486.998 540.153 439.129 458.356 428.402C391.309 433.766 325.603 393.534 316.217 388.171Z" fill="#DDD6FD"></path>
<path d="M131.167 421.693C147.259 461.921 205.188 540.037 296.103 547.741C375.218 554.446 416.787 547.741 474.447 574.56C513.241 592.604 540.153 617.47 617.928 617.47" stroke="#F2EEFF" stroke-width="3"></path>
<g style="mix-blend-mode:multiply">
<path d="M597.813 473.99C682.292 709.995 495.902 850.794 407.4 865.544C473.106 860.18 506.629 851.903 548.198 834.702C625.973 802.52 659.688 748.882 671.564 707.313C683.441 665.744 687.656 612.107 679.61 573.22C668.555 519.786 623.11 484.755 597.813 473.99Z" fill="#8274D7" fill-opacity="0.8"></path>
</g>
<path d="M576.359 329.169C524.868 327.024 405.614 288.941 352.423 270.168C337.673 274.191 325.604 282.236 326.945 290.282C328.286 298.328 561.609 360.011 576.359 361.352C588.16 362.424 581.276 340.344 576.359 329.169Z" fill="#B3A8E6" stroke="#151515" stroke-width="3"></path>
<path d="M396.674 36.8438C399.574 47.6548 410.138 65.5527 436.902 83.7765C455.506 96.4444 483.345 109.27 516.017 119.982C549.602 130.993 577.762 135.65 600.496 133.391C633.132 130.149 654.587 115.266 664.861 106.572" stroke="#FCCA7A" stroke-width="3"></path>
<path d="M436.901 220.553L475.788 111.938C496.17 121.592 537.024 132.052 554.903 136.074L520.039 244.69C482.493 242.545 448.969 227.705 436.901 220.553Z" fill="#FCCA7A" stroke="#FCCA7A" stroke-width="3"></path>
<path d="M491.88 115.961L479.812 148.143" stroke="#BE882F" stroke-width="3" stroke-linecap="round"></path>
<path d="M514.676 158.869L501.267 200.438" stroke="#BE882F" stroke-width="3" stroke-linecap="round"></path>
<path d="M482.493 193.732L469.084 235.301" stroke="#BE882F" stroke-width="3" stroke-linecap="round"></path>
<path d="M389.968 188.37C387.823 157.261 390.862 75.2848 392.65 38.1855C392.059 52.4889 414.564 89.4093 509.312 122.665C604.06 155.92 653.384 126.687 666.202 107.914L588.428 242.008C491.88 263.463 415.893 215.189 389.968 188.37Z" stroke="#151515" stroke-width="3"></path>
</svg>