<svg width="734" height="887" viewBox="0 0 734 887" fill="none" xmlns="http://www.w3.org/2000/svg">
<path d="M411.639 130.116C472.801 77.0018 619.51 -22.4673 717.047 4.57287C744.811 64.9314 741.19 194.096 671.176 325.676L577.017 471.741C571.384 525.258 547.805 648.95 513.039 686.613C446.244 747.373 292.614 872.514 212.459 887C210.459 872.998 210.765 832.665 227.852 782.848C225.461 786.991 208.5 793.435 154.516 791.635V781.978C136.811 785.599 97.7797 800.81 83.2939 832.678C69.2105 794.049 50.4595 704.962 88.1225 657.642L73.6361 663.677C72.4294 657.239 79.4316 634.947 88.1225 621.427L27.7644 675.749L0 668.506C6.43783 604.527 41.0424 457.738 118.301 372.754C140.029 353.038 196.041 307.327 255.916 291.875L411.639 130.116Z" fill="white"></path>
<path d="M94.1581 640.809C123.13 592.523 164.173 579.647 181.073 579.244L281.267 661.33C262.918 745.348 201.193 767.157 172.624 767.559C186.144 755.971 195.962 738.588 199.181 731.345C191.536 737.783 171.658 752.349 153.309 759.109C134.961 765.869 101.401 785.264 86.9152 794.117C76.2923 688.853 112.265 639.199 131.58 627.53C115.162 629.462 99.7914 637.187 94.1581 640.809Z" fill="#E1D53C" stroke="#151515" stroke-width="3"></path>
<path d="M137.615 610.632C146.307 596.146 171.818 585.282 183.487 581.66L261.952 648.053C259.054 699.236 222.92 731.347 205.216 741.004C217.77 712.998 217.689 693.12 216.08 686.682C193.868 705.997 145.663 727.725 124.337 736.175C111.782 708.169 144.858 638.396 162.965 607.01C153.308 607.976 142.041 609.827 137.615 610.632Z" fill="#E5A02B"></path>
<path d="M184.695 573.209L179.866 579.245L287.302 668.574L300.581 656.502L184.695 573.209Z" fill="#DCD235" stroke="#151515" stroke-width="3"></path>
<path d="M301.789 658.918L175.038 568.382L187.11 535.789L325.932 638.397L301.789 658.918Z" fill="#ACA5E6" stroke="#151515" stroke-width="3"></path>
<path d="M410.431 166.4C338.002 212.272 272.816 304.015 271.609 306.43C222.357 378.859 194.351 489.112 188.315 535.788L329.552 638.396C498.553 559.207 593.918 417.487 638.582 353.509C567.119 250.177 462.338 182.093 410.431 166.4Z" fill="#F8F9FE" stroke="#151515" stroke-width="3"></path>
<path d="M188.317 535.787C206.665 425.695 263.562 345.057 289.717 318.5C210.045 342.643 152.142 386.1 137.616 409.036C82.5705 495.951 47.0803 596.949 35.0088 639.602C77.5004 611.596 145.262 581.256 173.831 569.587L188.317 535.787Z" fill="#ACA5E6" stroke="#151515" stroke-width="3"></path>
<path d="M266.781 305.223L289.717 318.501C232.981 336.609 155.533 378.122 136.409 411.452C94.1586 485.088 76.0513 518.888 33.8011 640.81L20.5225 634.774C62.7727 479.052 102.609 428.352 129.166 388.516C150.412 356.647 229.762 319.708 266.781 305.223Z" fill="#ACA5E6" stroke="#151515" stroke-width="3"></path>
<path d="M239.016 390.93L231.773 405.415C305.168 445.01 400.774 532.166 439.403 570.795L451.475 561.138C391.6 489.674 284.888 417.889 239.016 390.93Z" fill="#DCD235" stroke="#151515" stroke-width="3"></path>
<circle cx="475.618" cy="319.708" r="64.8932" fill="#ACA5E6" stroke="#151515" stroke-width="3"></circle>
<circle cx="475.618" cy="320.916" r="41.9574" fill="#66C4FF" stroke="#151515" stroke-width="3"></circle>
<path d="M435.782 138.635L427.332 147.085C557.704 209.857 628.121 291.54 647.033 324.536L654.276 310.05C587.641 214.444 480.849 155.937 435.782 138.635Z" fill="#DCD235" stroke="#151515" stroke-width="3"></path>
<path d="M702.607 17.5947C624.108 -3.87691 491.195 82.4892 430.254 131.65C428.426 133.125 428.995 136.001 431.206 136.792C540.747 176.008 623.631 263.499 654.836 306.903C656.202 308.803 659.151 308.47 660.101 306.332C732.089 144.217 720.009 48.1216 704.338 18.949C703.969 18.262 703.36 17.8005 702.607 17.5947Z" fill="#ACA5E6" stroke="#151515" stroke-width="3"></path>
<path d="M423.71 145.877C412.846 145.877 401.982 159.156 399.567 163.984C501.934 194.887 601.564 304.818 638.583 355.921C648.24 349.161 651.459 338.618 651.862 334.192C596.333 235.206 434.575 145.877 423.71 145.877Z" fill="#ACA5E6" stroke="#151515" stroke-width="3"></path>
<path d="M502.174 661.333C535.008 609.184 548.448 510.037 551.667 468.189C505.795 527.34 393.53 613.047 325.93 637.19L304.201 658.919C267.282 732.757 247.453 817.267 241.757 852.413C241.621 853.249 242.483 853.849 243.209 853.414C316.756 809.448 469.604 713.061 502.174 661.333Z" fill="#ACA5E6" stroke="#151515" stroke-width="3"></path>
<path d="M243.847 853.267C211.012 872.582 259.137 738.186 287.304 668.573L299.375 657.709L302.996 658.916C275.232 714.445 249.881 802.567 242.639 849.646L243.847 853.267Z" fill="#ACA5E6" stroke="#151515" stroke-width="3"></path>
<path d="M468.375 360.753L463.547 282.288C469.341 279.391 476.826 279.873 478.033 281.081L482.861 360.753C478.033 362.684 471.192 361.558 468.375 360.753Z" fill="#9BD8FF"></path>
<path d="M549.254 473.016C527.526 500.78 480.044 543.03 453.89 562.345L441.846 654.316C441.047 660.419 438.187 666.065 433.74 670.319L245.053 850.853C302.159 816.018 335.129 794.554 394.739 754.281C466.202 704.064 499.122 668.574 508.211 649.259C537.183 587.695 548.047 505.609 549.254 473.016Z" fill="#7E77E2"></path>
<path d="M484.069 360.687L481.654 281.081C481.654 279.869 487.69 281.078 488.897 282.285L491.311 358.336C492.519 358.336 486.483 360.75 484.069 360.687Z" fill="#9BD8FF"></path>
<path d="M702.562 19.1616C699.922 15.5334 675.602 15.1056 665.14 15.508C709.563 22.2691 702.562 67.4148 697.733 101.246C677.285 244.519 643.412 263.004 627.719 271.454C631.34 274.674 640.273 283.767 647.033 294.39C653.793 305.013 659.507 302.036 661.519 299.219C668.279 289.562 686.064 235.642 694.112 209.89C727.912 107.284 712.219 32.4334 702.562 19.1616Z" fill="#7E77E2"></path>
<path d="M597.54 304.015L614.44 285.908C626.029 296.531 643.412 322.525 650.655 334.194C647.757 344.817 641.4 351.497 638.583 353.509L597.54 304.015Z" fill="#7E77E2"></path>
<path d="M420.089 526.129C565.912 426.66 579.433 349.885 596.333 306.428L636.169 354.714C610.094 402.034 539.194 479.05 507.004 511.643C495.679 523.109 486.482 533.372 465.961 547.858L452.682 558.722L420.089 526.129Z" fill="#EAE9EF"></path>
<path d="M301.788 615.461C350.074 590.111 365.767 580.453 403.189 538.203L436.989 570.796C428.539 578.039 394.739 600.492 383.874 607.011C357.749 622.686 363.353 617.875 341.624 628.739L327.138 634.775L301.788 615.461Z" fill="#EAE9EF"></path>
<path d="M406.81 516.473L395.945 527.337C400.774 529.268 426.929 556.309 439.403 569.587L449.06 561.137C445.197 555.343 419.284 528.947 406.81 516.473Z" fill="#B9B43F"></path>
<path d="M614.44 264.178L605.99 271.421C610.819 273.352 636.169 305.221 647.033 322.121L653.069 310.049C649.206 304.255 626.512 275.042 614.44 264.178Z" fill="#B9B43F"></path>
</svg>