<svg width="864" height="719" viewBox="0 0 864 719" fill="none" xmlns="http://www.w3.org/2000/svg">
<path d="M53.3544 281.271L158.91 236.577C159.048 236.518 159.165 236.436 159.264 236.325C200.693 189.534 308.899 91.4916 367 46.7255C435.333 -5.92454 508.344 67.8829 529.353 111.034C529.685 111.716 530.611 111.778 531.062 111.167L611.871 1.56368C612.354 0.909076 613.374 1.07373 613.627 1.84689L642.362 89.9056C642.495 90.3145 642.352 90.7629 642.007 91.0191L558.563 152.899C558.103 153.24 558.021 153.894 558.378 154.342C571.972 171.375 579.77 199.094 582.263 212.252C582.39 212.92 583.125 213.276 583.725 212.958L758.202 120.532C758.621 120.31 759.139 120.413 759.441 120.779L862.509 245.397C863.04 246.039 862.599 247.011 861.766 247.034L590.753 254.563C590.022 254.583 589.561 255.36 589.879 256.019C600.667 278.376 601.206 298.5 599.947 307.347C599.841 308.088 600.53 308.717 601.249 308.512L696.279 281.494C696.677 281.381 697.103 281.524 697.352 281.855L776.419 386.968C776.971 387.702 776.326 388.729 775.425 388.55L606.786 355.009C606.108 354.874 605.497 355.428 605.587 356.113C608.558 378.77 607.913 436.501 582.509 497.769C556.632 560.18 502.658 544.884 478.734 529.345C478.622 529.272 478.501 529.225 478.37 529.201L237.574 485.42C237.403 485.389 237.227 485.403 237.063 485.46L202.95 497.446C202.438 497.626 202.163 498.18 202.329 498.696L220.008 553.595C220.097 553.872 220.062 554.173 219.911 554.421L206.899 575.798C206.833 575.907 206.746 576.002 206.644 576.078L203.585 578.373C203.229 578.64 203.092 579.11 203.249 579.526L224.733 636.506C224.848 636.811 225.104 637.04 225.419 637.122L253.971 644.49C254.288 644.572 254.545 644.804 254.659 645.112L270.426 687.775C270.581 688.195 270.438 688.667 270.076 688.931L229.03 718.783C228.837 718.923 228.6 718.99 228.363 718.971L156.93 713.332C156.524 713.299 156.178 713.024 156.056 712.636L98.4191 530.278C98.2423 529.718 97.631 529.431 97.0733 529.612C83.2988 534.097 48.9245 522.585 13.221 441.508C-23.3654 358.426 24.5824 300.159 53.1985 281.354C53.2486 281.321 53.2992 281.295 53.3544 281.271Z" fill="white"></path>
<path d="M214.728 649.433C214.543 649.406 214.389 649.278 214.328 649.102L187.727 572.149L167.847 502.095C167.768 501.818 167.472 501.664 167.201 501.759L130.024 514.771C129.766 514.861 129.629 515.143 129.716 515.402L180.005 665.321C180.063 665.493 180.209 665.62 180.388 665.653L216.15 672.241C216.269 672.263 216.392 672.241 216.496 672.179L245.637 654.876C246.042 654.636 245.921 654.02 245.455 653.952L214.728 649.433Z" fill="#8C8CE0" stroke="#151515" stroke-width="3"></path>
<path d="M166.61 577.392L146.858 509.671C146.783 509.414 146.923 509.144 147.176 509.058L188.191 495.075C188.459 494.984 188.749 495.133 188.831 495.404L206.742 554.794C206.779 554.916 206.767 555.047 206.71 555.162L200.223 568.137C200.16 568.263 200.047 568.356 199.913 568.394L167.227 577.733C166.962 577.809 166.687 577.656 166.61 577.392Z" fill="#E9E9F0" stroke="#151515" stroke-width="3"></path>
<path d="M173.424 562.613L166.749 577.871" stroke="#151515" stroke-width="3"></path>
<path d="M180.1 664.646L214.429 649.389" stroke="#151515" stroke-width="3"></path>
<path d="M165.695 697.708L107.837 517.494C107.733 517.171 107.972 516.839 108.311 516.834C110.154 516.806 115.4 516.658 120.024 515.887C124.716 515.105 128.125 514.964 129.2 514.939C129.416 514.934 129.605 515.072 129.673 515.276L179.052 664.365C179.11 664.538 179.257 664.666 179.437 664.699L215.2 671.287C215.317 671.309 215.438 671.288 215.541 671.228L244.427 654.456C244.696 654.3 245.041 654.424 245.148 654.716L255.298 682.4C255.377 682.614 255.3 682.854 255.112 682.984L225.068 703.639C224.971 703.706 224.853 703.736 224.736 703.725L166.123 698.053C165.924 698.034 165.756 697.898 165.695 697.708Z" fill="#C0BFFD" stroke="#151515" stroke-width="3"></path>
<path d="M173.294 562.155L157.342 505.853C157.27 505.597 157.409 505.33 157.66 505.244L187.243 495.075C187.509 494.983 187.797 495.129 187.882 495.396L206.635 554.466C206.723 554.745 206.555 555.04 206.27 555.105L173.887 562.507C173.627 562.566 173.367 562.412 173.294 562.155Z" fill="#F8F9FF" stroke="#151515" stroke-width="3"></path>
<path d="M215.381 671.322L224.917 703.744" stroke="#151515" stroke-width="3"></path>
<path d="M58.9937 292.751L166.749 246.025C156.259 265.097 136.581 325.173 152.445 383.341C169.61 446.277 218.242 472.66 237.314 477.746L144.816 509.214C118.116 522.882 56.7051 528.667 24.6648 442.463C-7.3755 356.259 34.2006 306.737 58.9937 292.751Z" fill="#C0BFFD" stroke="#151515" stroke-width="3"></path>
<path d="M161.98 410.994C76.5393 414.808 32.2931 425.298 21.8037 429.112C33.2467 469.163 52.3183 492.049 73.2971 506.352C93.3223 516.842 108.58 518.431 127.651 513.981C146.723 509.531 235.406 477.745 235.406 477.745C194.211 464.776 169.291 427.841 161.98 410.994Z" fill="#8C8CE0"></path>
<path d="M384.166 55.3067L164.842 247.93C154.989 272.088 138.905 333.944 153.399 388.107C167.894 442.271 214.746 470.433 236.361 477.744L486.199 517.794C599.103 556.701 598.086 373.803 583.464 277.491C523.961 44.0544 425.806 32.1029 384.166 55.3067Z" fill="#F8F9FF" stroke="#151515" stroke-width="3"></path>
<path d="M368.909 363.271C301.015 187.049 350.791 84.5075 384.167 55.2643C423.264 20.9354 537.785 61.8405 583.464 274.634C611.517 405.311 576.789 494.907 551.043 511.076C518.621 535.233 436.804 539.493 368.909 363.271Z" fill="#C0BFFD" stroke="#151515" stroke-width="3"></path>
<path d="M565.785 266.357C577.651 323.586 579.951 377.23 572.938 417.824C569.43 438.123 563.609 455.075 555.56 467.573C547.524 480.052 537.316 488.027 524.992 490.583C512.649 493.142 498.928 489.989 484.819 481.864C470.714 473.741 456.325 460.705 442.739 443.709C415.57 409.72 391.763 360.083 379.914 302.938C368.049 245.715 365.986 191.834 373.237 151.001C376.863 130.583 382.803 113.509 390.942 100.92C399.07 88.3464 409.339 80.3135 421.661 77.7586C433.998 75.2004 447.656 78.4093 461.675 86.621C475.69 94.8309 489.961 107.985 503.43 125.101C530.364 159.329 553.935 209.207 565.785 266.357Z" fill="#E9E9F0" stroke="#151515" stroke-width="3"></path>
<path d="M496.684 286.091C527.199 458.689 513.818 478.246 492.87 483.482C469.986 480.609 408.004 412.902 384.904 315.652C361.804 218.402 372.939 133.574 387.981 112.538C408.929 107.302 475.442 165.94 496.684 286.091Z" fill="#DEDFE4"></path>
<path d="M407.051 381.433C386.454 349.393 371.769 268.911 371.769 239.35L428.983 242.21C437.566 242.21 451.869 251.746 459.498 282.261C467.847 315.655 460.452 328.986 457.591 333.754L407.051 381.433Z" fill="#8C8CE0" stroke="#151515" stroke-width="3"></path>
<path d="M608.96 27.2348L626.448 84.9452C626.508 85.143 626.44 85.3573 626.277 85.4844L503.044 181.644C502.828 181.812 502.517 181.776 502.346 181.562L500.706 179.512C500.567 179.338 500.56 179.093 500.688 178.911L608.073 27.091C608.314 26.7514 608.84 26.8366 608.96 27.2348Z" fill="#FFDE26" stroke="#151515" stroke-width="3"></path>
<path d="M750.439 369.571L689.936 296.612C689.811 296.46 689.608 296.396 689.418 296.449L561.25 331.932C561.013 331.998 560.859 332.226 560.886 332.47L561.215 335.366C561.24 335.585 561.405 335.762 561.621 335.802L749.964 370.382C750.424 370.466 750.737 369.931 750.439 369.571Z" fill="#FFDE26" stroke="#151515" stroke-width="3"></path>
<path d="M829.521 229.631L755.933 144.234C755.785 144.062 755.539 144.011 755.335 144.111L547.968 245.446C547.702 245.576 547.607 245.908 547.763 246.16L547.92 246.412C548.017 246.568 548.191 246.658 548.374 246.647L829.171 230.456C829.585 230.433 829.791 229.945 829.521 229.631Z" fill="#FFDE26" stroke="#151515" stroke-width="3"></path>
<path d="M459.942 284.502C462.819 297.347 463.676 309.292 462.699 318.22C462.21 322.691 461.27 326.317 459.958 328.906C458.645 331.499 457.064 332.863 455.356 333.246C453.632 333.632 451.553 333.079 449.168 331.316C446.79 329.56 444.282 326.719 441.821 322.932C436.908 315.367 432.365 304.297 429.493 291.471C426.611 278.602 425.519 266.886 426.263 258.191C426.636 253.836 427.461 250.338 428.682 247.849C429.897 245.369 431.412 244.058 433.126 243.674C434.881 243.281 437.036 243.804 439.511 245.489C441.975 247.166 444.596 249.895 447.167 253.559C452.304 260.879 457.075 271.698 459.942 284.502Z" fill="#C0BFFD" stroke="#151515" stroke-width="3"></path>
<path d="M375.173 78.7077C376.189 77.1016 378.2 76.4596 379.967 77.1565L387.151 79.9885C389.302 80.8366 390.293 83.32 389.316 85.4161C386.102 92.3155 379.376 106.919 375.584 116.342C370.4 129.223 365.451 146.507 363.324 154.251C362.719 156.454 360.408 157.729 358.227 157.048L350.185 154.535C348.33 153.955 347.164 152.13 347.46 150.209C348.631 142.617 351.936 123.645 357.465 110.616C361.998 99.9345 371.297 84.839 375.173 78.7077Z" fill="white"></path>
<path d="M397.791 60.3725C399.754 59.2258 402.319 59.7818 403.511 61.7175L407.613 68.3778C408.433 69.71 408.407 71.4025 407.423 72.6188C406.123 74.2252 404.175 76.333 402.283 77.2398C400.305 78.1879 398.169 79.8332 396.421 81.3536C394.465 83.055 391.369 82.7786 389.946 80.6112L385.435 73.7376C384.584 72.4419 384.555 70.7701 385.477 69.524C387.095 67.3353 389.877 64.0625 392.741 62.9314C394.357 62.293 396.216 61.2922 397.791 60.3725Z" fill="white"></path>
<path d="M447.968 269.869C448.34 270.879 447.925 272 446.998 272.546V272.546C445.869 273.211 444.413 272.785 443.814 271.621C442.743 269.541 441.108 266.413 439.917 264.359C438.288 261.548 435.951 258.244 434.445 256.183C433.647 255.092 433.894 253.549 435.005 252.78V252.78C435.951 252.126 437.226 252.246 438.002 253.095C439.717 254.971 442.64 258.359 444.299 261.349C445.669 263.817 447.154 267.654 447.968 269.869Z" fill="white"></path>
<path d="M450.118 278.143C449.781 279.475 448.613 280.506 447.247 280.354V280.354C446.307 280.249 445.482 279.608 445.367 278.669C445.321 278.283 445.31 277.887 445.381 277.561C445.414 277.413 445.438 277.256 445.457 277.093C445.625 275.596 446.789 274.262 448.291 274.386V274.386C449.189 274.459 449.98 275.044 450.153 275.928C450.281 276.581 450.351 277.337 450.179 277.92C450.158 277.991 450.138 278.066 450.118 278.143Z" fill="white"></path>
<path d="M399.422 433.886C341.444 412.526 218.878 409.405 163.888 410.994C181.052 445.323 217.924 471.077 235.406 476.797L464.266 512.079L470.941 513.033C435.658 492.054 411.501 455.5 399.422 433.886Z" fill="#E9E9F0"></path>
<path d="M128.605 514.935L235.407 478.699" stroke="#151515" stroke-width="3"></path>
</svg>