<svg width="1041" height="775" viewBox="0 0 1041 775" fill="none" xmlns="http://www.w3.org/2000/svg">
<path d="M6.88433 58.6721L73.2051 575.974C74.0999 582.953 78.0119 589.188 83.9065 593.029L338.678 759.066C354.389 769.305 373.224 773.228 391.693 769.973C513.224 748.548 982.205 665.505 1007 655.5C1035.5 644 1049.57 619.5 1033.5 597C1018.61 576.149 782.413 468.924 747.869 453.319C745.146 452.088 743.36 449.658 742.849 446.714L673.729 48.4482C668.878 20.4962 644.519 0.155528 616.15 0.367633L54.1358 4.56961C25.3479 4.78484 3.22343 30.1171 6.88433 58.6721Z" fill="white"></path>
<path d="M58.943 26.8345L616.753 21.1887C632.833 21.0259 646.689 32.4769 649.557 48.2995L725.606 467.718C726.006 469.924 724.514 472.029 722.3 472.382L112.053 569.685C103.637 571.027 95.7954 565.096 94.7951 556.632L35.3518 53.6501C33.6765 39.4746 44.6696 26.979 58.943 26.8345Z" fill="#2F2F2F" stroke="#151515" stroke-width="2"></path>
<path d="M52.6984 28.2622L613.691 20.0981C630.803 19.8491 645.586 32.0109 648.639 48.8501L724.167 465.398C724.671 468.179 722.773 470.824 719.977 471.236L128.812 558.418C119.352 559.813 110.603 553.134 109.455 543.641L47.8073 33.862C47.4507 30.9132 49.7284 28.3055 52.6984 28.2622Z" fill="#2F2F2F" stroke="#151515" stroke-width="2"></path>
<path d="M370.377 706.565L123.545 558.95L732.331 468.622L998.67 589.685C1004.04 592.129 1003.03 600.051 997.212 601.059L379.27 708.217C376.204 708.749 373.048 708.163 370.377 706.565Z" fill="#878787" stroke="#151515" stroke-width="2"></path>
<path d="M135.553 600.656C117.376 589.176 119.208 569.876 122.693 560.671C122.907 560.106 123.578 559.891 124.098 560.2L370.515 706.587C372.972 708.046 375.869 708.581 378.685 708.095L1000.23 600.804C1000.72 600.719 1001.21 601.021 1001.35 601.5C1007.59 622.799 990.692 634.629 981.267 637.938C981.217 637.955 981.17 637.968 981.117 637.977C810.302 668.243 458.382 730.487 416.604 737.451C374.819 744.415 345.198 734.963 325.822 722.527C270.275 686.878 154.456 612.594 135.553 600.656Z" fill="#626262" stroke="#151515" stroke-width="2"></path>
<path d="M235.04 645.424L317.117 697.655" stroke="#151515" stroke-width="3" stroke-linecap="round"></path>
<path d="M710.924 580.819L503.889 612.671C502.965 612.813 502.724 614.031 503.523 614.515L595.199 670.002C595.498 670.184 595.681 670.508 595.681 670.858V680.296C595.681 680.917 596.241 681.388 596.853 681.281L786.366 648.055C786.845 647.971 787.194 647.555 787.194 647.07V637.222C787.194 636.905 787.043 636.606 786.787 636.418L711.669 581.003C711.455 580.845 711.187 580.779 710.924 580.819Z" fill="#878787" stroke="#151515" stroke-width="2"></path>
<path d="M306.174 628.203L217.687 563.96L666.421 493.498L787.536 549.211L306.174 628.203Z" fill="#565656"></path>
<path d="M306.174 628.203L217.687 563.96L666.421 493.498L787.536 549.211L306.174 628.203Z" stroke="#151515" stroke-width="2"></path>
<path d="M306.174 628.203L217.687 563.96L666.421 493.498L787.536 549.211L306.174 628.203Z" stroke="black" stroke-opacity="0.2" stroke-width="2"></path>
<path d="M645.578 562.817L626.659 546.234L672.638 539.003L692.743 555.561L645.578 562.817Z" stroke="black"></path>
<path d="M239.559 570.238C239.24 569.966 239.379 569.446 239.79 569.368L290.74 559.663C290.903 559.632 291.07 559.683 291.187 559.8L305.263 573.876C305.545 574.158 305.399 574.641 305.007 574.72L256.418 584.437C256.268 584.467 256.112 584.427 255.995 584.327L239.559 570.238Z" fill="#262626"></path>
<path d="M258.194 587.64C257.88 587.368 258.016 586.854 258.423 586.772L306.915 577.074C307.073 577.042 307.236 577.089 307.354 577.199L325.086 593.749C325.388 594.03 325.238 594.536 324.831 594.607L276.311 603.098C276.163 603.124 276.011 603.082 275.897 602.983L258.194 587.64Z" fill="#262626"></path>
<path d="M312.911 577.675C312.597 577.403 312.732 576.889 313.14 576.807L357.902 567.779C358.061 567.747 358.224 567.794 358.342 567.904L376.074 584.453C376.376 584.735 376.226 585.241 375.819 585.312L331.029 593.134C330.881 593.159 330.73 593.117 330.616 593.019L312.911 577.675Z" fill="#262626"></path>
<path d="M362.654 569.56C362.34 569.288 362.475 568.774 362.882 568.692L401.428 560.908C401.586 560.876 401.75 560.923 401.868 561.033L419.596 577.579C419.898 577.861 419.746 578.368 419.339 578.437L380.772 585.02C380.624 585.045 380.473 585.003 380.36 584.905L362.654 569.56Z" fill="#262626"></path>
<path d="M280.737 607.556C280.385 607.296 280.513 606.741 280.943 606.662L326.826 598.21C326.976 598.182 327.131 598.225 327.246 598.325L346.198 614.909C346.51 615.182 346.374 615.694 345.967 615.775L303.653 624.238C303.515 624.266 303.371 624.234 303.258 624.15L280.737 607.556Z" fill="#262626"></path>
<path d="M332.968 598.851C332.615 598.591 332.743 598.036 333.174 597.957L379.057 589.505C379.207 589.477 379.362 589.52 379.476 589.62L398.429 606.203C398.741 606.476 398.604 606.989 398.198 607.07L355.883 615.533C355.745 615.561 355.602 615.529 355.488 615.445L332.968 598.851Z" fill="#262626"></path>
<path d="M295.521 560.291C295.202 560.018 295.341 559.499 295.752 559.42L346.702 549.716C346.865 549.685 347.032 549.736 347.149 549.853L361.225 563.928C361.507 564.211 361.361 564.694 360.969 564.772L312.38 574.49C312.23 574.52 312.074 574.479 311.957 574.379L295.521 560.291Z" fill="#262626"></path>
<path d="M355.232 550.361C354.91 550.085 355.056 549.56 355.474 549.489L412.617 539.762C412.777 539.735 412.94 539.787 413.054 539.901L428.339 555.186C428.629 555.476 428.466 555.972 428.061 556.034L372.06 564.556C371.916 564.578 371.77 564.536 371.659 564.441L355.232 550.361Z" fill="#262626"></path>
<path d="M406.22 562.98C405.898 562.705 406.043 562.179 406.461 562.108L456.143 553.655C456.302 553.627 456.465 553.679 456.58 553.794L471.863 569.077C472.153 569.367 471.989 569.864 471.583 569.925L423.046 577.176C422.903 577.197 422.757 577.155 422.647 577.061L406.22 562.98Z" fill="#262626"></path>
<path d="M459.694 554.06C459.372 553.785 459.518 553.259 459.936 553.188L509.617 544.735C509.777 544.708 509.94 544.76 510.055 544.874L525.337 560.157C525.627 560.447 525.464 560.944 525.057 561.005L476.521 568.256C476.377 568.277 476.232 568.236 476.122 568.141L459.694 554.06Z" fill="#262626"></path>
<path d="M514.412 546.599C514.09 546.324 514.236 545.798 514.653 545.727L564.335 537.274C564.495 537.247 564.658 537.299 564.772 537.413L580.055 552.696C580.345 552.986 580.181 553.483 579.775 553.544L531.239 560.795C531.095 560.816 530.95 560.775 530.839 560.68L514.412 546.599Z" fill="#262626"></path>
<path d="M571.618 536.648C571.296 536.373 571.442 535.847 571.859 535.776L621.584 527.315C621.719 527.292 621.858 527.326 621.968 527.408L640.753 541.497C641.106 541.762 640.968 542.32 640.533 542.391L588.448 550.84C588.303 550.864 588.154 550.822 588.043 550.727L571.618 536.648Z" fill="#262626"></path>
<path d="M626.329 549.097C626.01 548.817 626.162 548.293 626.58 548.227L672.56 540.996C672.701 540.974 672.845 541.013 672.955 541.104L693.06 557.661C693.394 557.936 693.246 558.475 692.819 558.541L645.653 565.797C645.507 565.82 645.359 565.776 645.248 565.679L626.329 549.097Z" fill="#262626"></path>
<path d="M681.029 540.376C680.713 540.099 680.859 539.58 681.273 539.507L729.816 531.042C729.926 531.022 730.041 531.041 730.14 531.094L758.553 546.485C758.971 546.712 758.866 547.34 758.397 547.418L700.374 557.088C700.226 557.113 700.075 557.07 699.962 556.971L681.029 540.376Z" fill="#262626"></path>
<path d="M419.898 540.41C419.577 540.134 419.722 539.609 420.14 539.537L477.283 529.811C477.443 529.784 477.606 529.836 477.72 529.95L493.005 545.235C493.295 545.525 493.132 546.021 492.727 546.083L436.726 554.605C436.582 554.627 436.436 554.585 436.325 554.49L419.898 540.41Z" fill="#262626"></path>
<path d="M482.074 530.459C481.753 530.184 481.897 529.66 482.313 529.587L530.769 521.107C530.923 521.08 531.08 521.127 531.195 521.233L547.662 536.524C547.969 536.809 547.811 537.323 547.396 537.385L498.906 544.659C498.762 544.68 498.616 544.638 498.506 544.544L482.074 530.459Z" fill="#262626"></path>
<path d="M541.765 521.752C541.445 521.477 541.588 520.953 542.005 520.88L590.46 512.4C590.614 512.373 590.772 512.42 590.886 512.526L607.354 527.817C607.661 528.102 607.502 528.616 607.088 528.678L558.597 535.952C558.454 535.973 558.308 535.931 558.198 535.837L541.765 521.752Z" fill="#262626"></path>
<path d="M598.979 511.811C598.657 511.535 598.803 511.008 599.222 510.938L665.154 499.95C665.262 499.932 665.372 499.949 665.469 500L687.675 511.688C688.094 511.908 687.999 512.535 687.533 512.622L615.812 525.993C615.663 526.021 615.509 525.98 615.395 525.881L598.979 511.811Z" fill="#262626"></path>
<path d="M628.827 526.735C628.504 526.459 628.651 525.932 629.07 525.862L695.001 514.873C695.109 514.855 695.22 514.873 695.317 514.924L717.522 526.611C717.942 526.832 717.847 527.458 717.381 527.545L645.659 540.917C645.51 540.945 645.357 540.904 645.242 540.805L628.827 526.735Z" fill="#262626"></path>
<path d="M385.056 590.155C384.74 589.876 384.889 589.357 385.304 589.287L620.327 549.704C620.47 549.68 620.616 549.719 620.728 549.811L640.852 566.384C641.182 566.656 641.041 567.189 640.62 567.263L405.647 608.074C405.498 608.1 405.344 608.056 405.231 607.956L385.056 590.155Z" fill="#262626"></path>
<path d="M239.559 567.754C239.24 567.481 239.379 566.962 239.79 566.883L290.74 557.178C290.903 557.147 291.07 557.199 291.187 557.316L305.263 571.391C305.545 571.674 305.399 572.157 305.007 572.235L256.418 581.953C256.268 581.983 256.112 581.942 255.995 581.842L239.559 567.754Z" fill="#151515"></path>
<path d="M258.195 585.156C257.881 584.884 258.016 584.369 258.424 584.288L306.916 574.589C307.074 574.558 307.237 574.604 307.355 574.714L325.087 591.264C325.389 591.546 325.239 592.051 324.832 592.122L276.312 600.613C276.164 600.639 276.012 600.597 275.898 600.499L258.195 585.156Z" fill="#151515"></path>
<path d="M312.911 575.188C312.597 574.916 312.732 574.402 313.14 574.32L357.902 565.293C358.061 565.261 358.224 565.308 358.342 565.418L376.074 581.967C376.376 582.249 376.226 582.754 375.819 582.825L331.029 590.647C330.881 590.673 330.73 590.631 330.616 590.533L312.911 575.188Z" fill="#151515"></path>
<path d="M362.654 567.075C362.34 566.803 362.475 566.29 362.882 566.207L401.428 558.424C401.586 558.392 401.75 558.438 401.868 558.549L419.596 575.095C419.898 575.377 419.746 575.883 419.339 575.953L380.772 582.536C380.624 582.561 380.473 582.519 380.36 582.421L362.654 567.075Z" fill="#151515"></path>
<path d="M280.737 605.072C280.385 604.812 280.513 604.257 280.943 604.178L326.826 595.725C326.976 595.698 327.131 595.74 327.246 595.841L346.198 612.424C346.51 612.697 346.374 613.209 345.967 613.291L303.653 621.754C303.515 621.781 303.371 621.749 303.258 621.666L280.737 605.072Z" fill="#151515"></path>
<path d="M332.968 596.365C332.615 596.105 332.743 595.55 333.174 595.471L379.057 587.018C379.207 586.991 379.362 587.033 379.476 587.134L398.429 603.717C398.741 603.99 398.604 604.502 398.198 604.584L355.883 613.047C355.745 613.074 355.602 613.042 355.488 612.959L332.968 596.365Z" fill="#151515"></path>
<path d="M295.521 557.807C295.202 557.534 295.341 557.014 295.752 556.936L346.702 547.231C346.865 547.2 347.032 547.252 347.149 547.369L361.225 561.444C361.507 561.726 361.361 562.21 360.969 562.288L312.38 572.006C312.23 572.036 312.074 571.995 311.957 571.895L295.521 557.807Z" fill="#151515"></path>
<path d="M355.233 547.877C354.911 547.601 355.057 547.075 355.475 547.004L412.618 537.278C412.778 537.251 412.941 537.302 413.055 537.417L428.34 552.702C428.63 552.992 428.467 553.488 428.062 553.55L372.061 562.072C371.917 562.094 371.771 562.052 371.66 561.957L355.233 547.877Z" fill="#151515"></path>
<path d="M406.22 560.496C405.898 560.22 406.043 559.694 406.461 559.623L456.143 551.17C456.302 551.143 456.465 551.195 456.58 551.31L471.863 566.592C472.153 566.882 471.989 567.38 471.583 567.44L423.046 574.692C422.903 574.713 422.757 574.671 422.647 574.577L406.22 560.496Z" fill="#151515"></path>
<path d="M459.694 551.576C459.372 551.3 459.518 550.775 459.936 550.703L509.617 542.25C509.777 542.223 509.94 542.275 510.055 542.39L525.337 557.672C525.627 557.963 525.464 558.46 525.057 558.52L476.521 565.772C476.377 565.793 476.232 565.751 476.122 565.657L459.694 551.576Z" fill="#151515"></path>
<path d="M514.412 544.115C514.09 543.839 514.236 543.314 514.653 543.243L564.335 534.789C564.495 534.762 564.658 534.814 564.772 534.929L580.055 550.211C580.345 550.502 580.181 550.999 579.775 551.059L531.239 558.311C531.095 558.332 530.95 558.29 530.839 558.196L514.412 544.115Z" fill="#151515"></path>
<path d="M571.618 534.164C571.296 533.888 571.442 533.362 571.859 533.291L621.584 524.831C621.719 524.808 621.858 524.842 621.968 524.924L640.753 539.013C641.106 539.277 640.968 539.836 640.533 539.906L588.448 548.356C588.303 548.38 588.154 548.338 588.043 548.242L571.618 534.164Z" fill="#151515"></path>
<path d="M626.329 546.61C626.01 546.331 626.162 545.806 626.58 545.74L672.56 538.51C672.701 538.487 672.845 538.527 672.955 538.617L693.06 555.175C693.394 555.449 693.246 555.989 692.819 556.055L645.653 563.311C645.507 563.333 645.359 563.29 645.248 563.193L626.329 546.61Z" fill="#151515"></path>
<path d="M681.029 537.892C680.713 537.615 680.859 537.095 681.273 537.023L729.816 528.557C729.926 528.538 730.041 528.557 730.14 528.61L758.553 544.001C758.971 544.227 758.866 544.855 758.397 544.933L700.374 554.604C700.226 554.628 700.075 554.585 699.962 554.487L681.029 537.892Z" fill="#151515"></path>
<path d="M419.9 537.926C419.578 537.65 419.724 537.124 420.142 537.053L477.285 527.327C477.445 527.299 477.608 527.351 477.722 527.466L493.007 542.751C493.297 543.041 493.134 543.537 492.729 543.599L436.728 552.121C436.584 552.142 436.438 552.101 436.327 552.006L419.9 537.926Z" fill="#151515"></path>
<path d="M482.074 527.975C481.753 527.7 481.897 527.175 482.313 527.103L530.769 518.623C530.923 518.596 531.08 518.643 531.195 518.749L547.662 534.04C547.969 534.325 547.811 534.839 547.396 534.901L498.906 542.174C498.762 542.196 498.616 542.154 498.506 542.06L482.074 527.975Z" fill="#151515"></path>
<path d="M541.766 519.268C541.446 518.993 541.589 518.468 542.006 518.396L590.461 509.916C590.615 509.889 590.773 509.936 590.887 510.042L607.355 525.333C607.662 525.618 607.503 526.132 607.089 526.194L558.598 533.467C558.455 533.489 558.309 533.447 558.199 533.353L541.766 519.268Z" fill="#151515"></path>
<path d="M598.981 509.327C598.659 509.05 598.805 508.524 599.224 508.454L665.156 497.465C665.263 497.447 665.374 497.465 665.471 497.516L687.677 509.203C688.096 509.424 688.001 510.05 687.535 510.137L615.814 523.509C615.665 523.537 615.511 523.496 615.396 523.397L598.981 509.327Z" fill="#151515"></path>
<path d="M628.827 524.25C628.504 523.974 628.651 523.447 629.07 523.378L695.001 512.389C695.109 512.371 695.22 512.389 695.317 512.44L717.522 524.127C717.942 524.348 717.847 524.974 717.381 525.061L645.659 538.433C645.51 538.461 645.357 538.419 645.242 538.321L628.827 524.25Z" fill="#151515"></path>
<path d="M385.056 587.67C384.74 587.392 384.889 586.872 385.304 586.802L620.327 547.22C620.47 547.195 620.616 547.235 620.728 547.327L640.852 563.9C641.182 564.171 641.041 564.705 640.62 564.778L405.647 605.589C405.498 605.615 405.344 605.572 405.231 605.472L385.056 587.67Z" fill="#151515"></path>
<path d="M83.5565 75.101C82.1155 64.3092 90.5106 54.7188 101.398 54.7188H612.826C621.599 54.7188 629.094 61.0431 630.569 69.6908L687.053 400.685C688.769 410.739 681.796 420.209 671.686 421.556L157.12 490.087C147.268 491.399 138.218 484.478 136.902 474.627L83.5565 75.101Z" fill="#020202"></path>
<path d="M506.295 440.09L203.006 55.1C202.817 54.8593 202.54 54.7189 202.234 54.7189C175.522 54.7189 120.549 54.7205 106.95 54.7188C96.133 54.7174 93.447 57.0417 88.7887 62.8106C88.4989 63.1695 88.4944 63.681 88.7763 64.0461L391.381 455.944C391.598 456.226 391.948 456.37 392.301 456.325L505.637 441.701C506.407 441.602 506.775 440.7 506.295 440.09Z" fill="#181818"></path>
<path d="M602.8 428.583L325.776 58.8066C325.283 58.1473 325.753 57.207 326.577 57.207H381.287C381.599 57.207 381.894 57.3534 382.083 57.6027L658.039 421.419C658.508 422.037 658.124 422.931 657.353 423.017L603.71 428.977C603.358 429.016 603.012 428.866 602.8 428.583Z" fill="#181818"></path>
<path d="M50.9875 29.8457H54.6873C49.7137 31.8354 47.64 38.1363 47.2248 41.038L63.3915 171.615L64.667 293.487L36.0645 55.9611C37.308 36.0637 47.2568 29.8457 50.9875 29.8457Z" fill="#121212" stroke="#121212" stroke-width="0.5"></path>
</svg>