<svg width="1080" height="1080" viewBox="0 0 1080 1080" fill="none" xmlns="http://www.w3.org/2000/svg">
<path d="M723.057 182.578C649.534 171.686 579.13 199.514 554.622 240.063L535.907 262.789L543.927 224.021C549.275 157.181 543.927 107.726 527.886 101.04C502.219 98.9011 439.212 183.026 414.258 224.021C362.925 305.299 359.895 385.78 360.786 416.526C234.593 431.498 188.784 529.257 185.665 575.599C169.623 739.223 273.448 822.015 327.365 842.958C456.767 899.638 612.995 842.513 674.933 806.865C858.876 700.99 898.623 528.366 895.504 455.287C886.147 371.514 838.557 199.689 723.057 182.578Z" fill="white"></path>
<path d="M203.927 633.035C177.191 489.73 307.751 438.753 376.373 431.178L519.41 298.835C542.136 254.721 629.028 186.668 709.236 197.347C778.086 206.514 857.27 303.308 853.61 439.31C851.838 505.128 836.749 590.366 780.086 659.771C625.017 849.706 439.648 851.378 357.658 837.565C317.554 829.098 230.663 776.339 203.927 633.035Z" fill="#E5A02B" stroke="#151515" stroke-width="3"></path>
<path d="M475.633 514.168C475.633 520.343 471.572 525.757 465.688 529.683C459.818 533.6 452.323 535.894 445.887 535.894C439.504 535.894 431.687 532.967 425.455 528.373C419.201 523.762 414.804 517.673 414.804 511.495C414.804 508.454 416.278 504.648 418.839 500.572C421.383 496.523 424.926 492.322 428.896 488.518C432.865 484.714 437.232 481.333 441.409 478.909C445.612 476.47 449.511 475.064 452.571 475.064C455.543 475.064 458.474 476.564 461.25 479.189C464.021 481.808 466.552 485.472 468.698 489.595C473 497.857 475.633 507.724 475.633 514.168Z" stroke="#D9931F" stroke-width="2"></path>
<path d="M442.178 562.676L442.031 562.629H441.876C432.489 562.629 425.061 555.355 419.919 545.252C414.8 535.192 412.13 522.65 412.13 512.831C412.13 508.09 414.137 502.096 417.563 495.703C420.976 489.334 425.743 482.668 431.137 476.611C436.533 470.553 442.53 465.131 448.391 461.232C454.277 457.315 459.91 455.012 464.602 455.012C469.272 455.012 474.138 457.209 478.859 461.015C483.571 464.813 488.06 470.153 491.954 476.272C499.754 488.53 505.042 503.718 505.042 515.504C505.042 525.379 502.715 541.487 493.726 552.941C489.252 558.643 483.128 563.194 474.783 565.274C466.424 567.357 455.757 566.981 442.178 562.676Z" stroke="#D9931F" stroke-width="2"></path>
<path d="M333.602 826.964C302.41 772.156 281.105 672.854 431.188 637.139C543.473 610.419 526.093 667.905 587.586 709.345C649.112 750.808 616.557 789.533 614.329 796.217" stroke="#D9931F" stroke-width="2"></path>
<path d="M495.349 590.702H495.211L495.078 590.739C474.115 596.635 447.856 587.503 426.714 573.042C416.171 565.83 406.973 557.34 400.422 548.845C393.85 540.323 390.034 531.919 390.034 524.862C390.034 517.788 394.118 508.375 400.758 498.116C407.368 487.903 416.404 477.013 426.077 467.027C435.749 457.041 446.032 447.987 455.121 441.438C459.667 438.162 463.896 435.527 467.587 433.714C471.304 431.889 474.374 430.949 476.634 430.949C481.295 430.949 484.698 432.72 487.79 436.135C490.937 439.61 493.725 444.749 497.084 451.452C497.724 452.73 498.384 454.061 499.068 455.443C505.538 468.503 514.272 486.133 530.659 506.769C543.552 523.004 539.721 543.895 529.955 560.96C525.086 569.469 518.783 576.939 512.484 582.27C506.14 587.639 499.966 590.702 495.349 590.702Z" stroke="#D9931F" stroke-width="2"></path>
<path d="M566.537 457.961C565.906 468.27 566.98 478.612 568.457 489.16C568.881 492.186 569.338 495.226 569.797 498.287C570.945 505.928 572.113 513.705 572.846 521.747C574.893 544.208 573.52 568.549 558.631 596.575C555.931 601.658 551.114 605.477 544.621 608.178C538.124 610.882 530.008 612.439 520.829 613.024C502.474 614.195 480.061 611.469 458.308 606.476C436.56 601.484 415.543 594.243 399.986 586.427C392.203 582.517 385.829 578.485 381.417 574.548C376.964 570.575 374.699 566.87 374.699 563.625C374.699 560.156 376.191 555.106 378.966 548.83C381.726 542.588 385.701 535.249 390.55 527.246C400.246 511.241 413.392 492.646 427.169 474.962C440.946 457.278 455.336 440.528 467.514 428.208C473.605 422.046 479.124 417.012 483.722 413.526C486.022 411.782 488.071 410.442 489.83 409.542C491.61 408.631 493.001 408.219 494.011 408.219C496.55 408.219 499.671 407.986 503.137 407.713C503.404 407.692 503.673 407.67 503.945 407.649C507.209 407.39 510.778 407.108 514.516 406.945C522.622 406.592 531.442 406.806 539.487 409.021C547.512 411.231 554.724 415.419 559.706 422.999C564.697 430.594 567.531 441.72 566.537 457.961Z" stroke="#D9931F" stroke-width="2"></path>
<path d="M706.579 732.067C717.317 710.679 713.905 593.843 653.771 527.538C578.602 444.657 656.455 391.185 699.408 393.859C773.403 398.466 829.542 340.386 834.911 329.691" stroke="#D9931F" stroke-width="2"></path>
<path d="M774.739 663.888C774.739 661.214 779.995 586.354 694.269 511.493C608.544 436.632 755.884 428.612 785.353 425.938C808.927 423.799 846.027 403.212 849.599 397.865" stroke="#D9931F" stroke-width="2"></path>
<path d="M436.65 740.51C448.163 735.063 461.913 739.98 467.36 751.493C472.808 763.006 467.891 776.756 456.378 782.203C450.628 784.924 445.737 784.642 441.609 782.347C437.423 780.019 433.888 775.545 431.091 769.634C428.294 763.724 426.877 757.733 427.56 752.593C428.234 747.518 430.959 743.203 436.65 740.51Z" stroke="#D9931F" stroke-width="2"></path>
<path d="M438.662 719.526C447.297 715.441 458.87 716.842 469.456 721.611C480.029 726.375 489.344 734.38 493.476 743.113C497.579 751.783 496.815 764.723 492.694 776.663C488.571 788.606 481.219 799.175 472.562 803.271C468.287 805.294 462.26 805.908 455.39 805.341C448.543 804.775 440.966 803.046 433.667 800.487C426.368 797.929 419.381 794.554 413.705 790.719C408.009 786.87 403.727 782.621 401.707 778.351C399.72 774.152 399.816 768.949 401.48 763.257C403.142 757.575 406.338 751.517 410.385 745.713C418.493 734.082 429.86 723.691 438.662 719.526Z" stroke="#D9931F" stroke-width="2"></path>
<path d="M511.825 734.167L511.869 734.261L511.931 734.343C521.622 747.16 525.041 765.036 522.714 781.297C520.384 797.574 512.342 811.981 499.407 818.102C492.901 821.18 482.56 823.255 470.537 824.102C458.541 824.948 444.969 824.564 432.061 822.785C419.142 821.005 406.947 817.837 397.669 813.148C388.367 808.448 382.201 802.329 380.91 794.736L380.887 794.601L380.828 794.476C379.844 792.397 379.297 789.549 379.189 786.066C379.082 782.595 379.413 778.558 380.136 774.144C381.582 765.315 384.582 755.057 388.685 744.951C392.787 734.844 397.978 724.923 403.787 716.757C409.608 708.572 415.988 702.24 422.436 699.189C428.86 696.149 437.11 695.642 446.101 696.952C455.078 698.259 464.694 701.363 473.773 705.431C482.849 709.499 491.354 714.514 498.108 719.62C504.893 724.749 509.8 729.887 511.825 734.167Z" stroke="#D9931F" stroke-width="2"></path>
<path d="M380.383 838.992C371.857 820.973 338.614 749.488 368.352 706.666C401.774 658.541 476.96 664.853 524.756 706.664C550.158 728.885 546.145 789.545 532.776 825.637" stroke="#D9931F" stroke-width="2"></path>
<path d="M364.341 433.961C376.373 472.728 396.424 654.532 225.314 698.647" stroke="#D9931F" stroke-width="2"></path>
<path d="M852.274 583.683C908.954 451.073 849.155 324.345 812.17 277.557C867.781 362.042 856.73 474.957 844.253 520.854C840.688 562.74 801.743 669.238 674.48 760.14C547.217 851.043 406.675 848.815 352.312 836.338C461.394 874.838 589.37 831.882 639.723 805.592C686.956 786.876 795.594 716.293 852.274 583.683Z" fill="#BE8831" stroke="#151515" stroke-width="3"></path>
<path d="M694.282 271.497C705.229 282.212 709.264 298.104 706.736 315.306C704.208 332.507 695.122 350.898 680.01 366.339C664.898 381.779 646.707 391.259 629.564 394.156C612.42 397.053 596.445 393.361 585.498 382.646C574.55 371.932 570.515 356.04 573.043 338.837C575.571 321.637 584.657 303.246 599.769 287.805C614.881 272.364 633.072 262.885 650.215 259.988C667.359 257.091 683.334 260.783 694.282 271.497Z" fill="#BE8831" stroke="black" stroke-width="3"></path>
<path d="M706.886 301.507L707.302 301.851L707.635 301.851C707.698 301.956 707.79 302.151 707.882 302.476C708.133 303.365 708.264 304.801 708.184 306.763C708.025 310.651 707.056 316.199 705.079 322.629C701.126 335.484 693.215 351.625 680.052 364.783C663.585 381.246 644.929 389.859 628.41 392.691C612.11 395.486 598.104 392.629 590.235 386.416C586.545 367.237 592.904 340.186 610.374 319.069C622.36 304.58 642.461 296.826 661.772 294.429C671.403 293.234 680.762 293.382 688.701 294.659C696.68 295.943 703.06 298.341 706.886 301.507Z" fill="white" stroke="black" stroke-width="3"></path>
<path d="M381.911 363.564C429.436 378.825 456.65 389.222 501.515 408.808C502.248 409.127 502.604 409.964 502.337 410.699L499.835 417.575C499.54 418.386 498.599 418.788 497.792 418.425C453.426 398.448 426.346 388.072 378.514 373.314C377.681 373.057 377.238 372.156 377.528 371.359L380.032 364.474C380.304 363.726 381.136 363.315 381.911 363.564Z" fill="#E4DED7" stroke="#151515" stroke-width="3"></path>
<path d="M375.316 490.35C395.839 499.456 411.959 505.329 433.057 511.932C433.788 512.161 434.575 511.799 434.877 511.094L436.493 507.325C436.844 506.505 436.401 505.543 435.526 505.277C414.589 498.92 399.158 492.354 378.776 482.904C378.02 482.554 377.125 482.882 376.776 483.629L374.571 488.355C374.217 489.113 374.555 490.013 375.316 490.35Z" fill="#E4DED7" stroke="#151515" stroke-width="3"></path>
<path d="M342.955 564.966C325.844 513.633 358.105 493.67 376.374 490.105L432.519 511.494C464.603 538.23 439.203 579.671 421.825 591.702C410.808 599.329 396.426 608.679 387.068 617.101C376.374 626.726 359.263 643.57 354.985 642.5C349.638 641.164 350.975 631.806 350.975 609.08C350.975 590.9 345.628 572.096 342.955 564.966Z" fill="#EBCC9E" stroke="#151515" stroke-width="3"></path>
<path d="M384.394 375.143C372.63 409.365 375.928 460.252 379.047 482.086C382.255 485.295 416.032 498.128 432.519 503.475C468.88 481.017 487.773 436.19 492.675 416.583C484.119 409.097 416.923 385.837 384.394 375.143Z" fill="#E4DED7" stroke="#151515" stroke-width="3"></path>
<path d="M449.897 198.664C407.469 258.515 388.85 333.68 385.73 364.427L437.866 381.804L496.685 405.866C508.448 390.894 523.866 278.426 530.105 224.063C534.4 186.629 531.441 121.142 520.747 119.814C511.389 118.652 495.348 134.549 449.897 198.664Z" fill="#856638" stroke="#151515" stroke-width="3"></path>
<path d="M849.602 479.417C834.451 466.049 804.148 455.352 765.377 463.371C717.367 473.3 756.465 519.516 770.726 540.906C784.987 562.295 805.487 585.023 821.528 589.034" stroke="#D9931F" stroke-width="2"></path>
<path d="M739.981 516.842C798.801 510.158 802.811 452.676 780.085 428.613C794.79 439.308 806.821 459.36 797.464 486.096C786.388 517.74 753.349 520.407 739.981 516.842Z" fill="#BB7734"></path>
<circle cx="739.982" cy="463.37" r="51.9719" fill="#76C07F" stroke="#151515" stroke-width="3"></circle>
<ellipse cx="709.167" cy="451.548" rx="8.02078" ry="16.0416" transform="rotate(15.268 709.167 451.548)" fill="#D9D9D9"></ellipse>
<path d="M413.803 581.007C440.539 562.827 430.291 525.753 421.824 508.82L427.171 510.157L428.069 510.516C431.858 512.032 435.176 514.529 437.682 517.75L440.794 521.752C442.395 523.81 443.634 526.126 444.459 528.599L446.043 533.352C446.825 535.697 447.223 538.153 447.223 540.625V547.865C447.223 550.338 446.825 552.793 446.043 555.139L443.966 561.37C443.465 562.872 442.811 564.318 442.013 565.686L435.355 577.1C434.359 578.807 433.148 580.378 431.751 581.775L424.946 588.58C423.76 589.766 422.447 590.819 421.031 591.72L408.456 599.723L392.415 611.754L379.047 623.785L365.589 636.121C363.88 637.687 361.903 638.931 359.751 639.791L356.522 641.083C356.389 641.136 356.248 641.163 356.105 641.163C355.486 641.163 354.984 640.661 354.984 640.042V639.973C354.984 639.876 354.994 639.785 355.019 639.691C357.849 628.919 380.524 603.637 413.803 581.007Z" fill="#C59C78"></path>
<path d="M727.951 512.831C788.107 506.147 789.444 450.082 770.729 423.266C782.76 431.286 799.248 454.723 786.77 483.422C773.402 514.168 741.319 516.396 727.951 512.831Z" fill="#43874E"></path>
<path d="M670.468 655.869C729.287 649.185 733.297 591.703 710.572 567.641C725.276 578.335 737.308 598.387 727.95 625.123C716.874 656.767 683.836 659.434 670.468 655.869Z" fill="#BB7734"></path>
<circle cx="670.469" cy="602.398" r="51.9719" fill="#DD99BE" stroke="#151515" stroke-width="3"></circle>
<ellipse cx="639.653" cy="590.576" rx="8.02078" ry="16.0416" transform="rotate(15.268 639.653 590.576)" fill="#EABCD3"></ellipse>
<path d="M658.438 651.858C718.593 645.174 719.93 589.109 701.215 562.293C713.246 570.314 729.734 593.75 717.257 622.449C703.889 653.195 671.805 655.423 658.438 651.858Z" fill="#C95874"></path>
<path d="M528.396 755.136C585.583 770.434 610.345 718.403 597.998 687.695C607.771 703.028 611.632 726.091 593.142 747.55C571.257 772.949 539.533 763.344 528.396 755.136Z" fill="#BB7734"></path>
<circle cx="547.959" cy="705.374" r="51.9719" transform="rotate(21.4593 547.959 705.374)" fill="#93D3FF" stroke="#151515" stroke-width="3"></circle>
<ellipse cx="523.603" cy="683.095" rx="8.02078" ry="16.0416" transform="rotate(36.7273 523.603 683.095)" fill="#BAE2FF"></ellipse>
<path d="M518.667 747.001C577.098 762.788 598.853 711.098 591.246 679.294C599.508 691.161 606.279 719.004 584.168 741.149C560.478 764.873 529.804 755.209 518.667 747.001Z" fill="#51ADFF"></path>
<path d="M368.496 757.76C414.761 794.69 458.296 756.941 459.288 723.859C462.099 741.823 456.395 764.501 430.856 776.753C400.628 791.255 375.411 769.743 368.496 757.76Z" fill="#BB7734"></path>
<circle cx="406.357" cy="720.005" r="51.9719" transform="rotate(45.0809 406.357 720.005)" fill="#B3A7E8" stroke="#151515" stroke-width="3"></circle>
<ellipse cx="392.971" cy="689.834" rx="8.02078" ry="16.0416" transform="rotate(60.3489 392.971 689.834)" fill="#CDC6EF"></ellipse>
<path d="M362.84 746.411C410.05 784.288 450.694 745.646 456.467 713.459C459.283 727.642 454.33 755.866 425.198 767.295C393.987 779.539 369.755 758.394 362.84 746.411Z" fill="#8665AE"></path>
<path d="M417.813 496.79C445.619 473.262 464.601 427.277 469.949 407.225C478.089 410.303 482.878 412.515 491.337 416.582C488.664 428.613 480.643 444.655 476.633 452.676C460.591 480.748 441.111 497.453 432.518 502.137L417.813 496.79Z" fill="#ACA8A0"></path>
<path d="M324.238 444.654C336.27 483.421 360.332 623.785 213.284 667.899" stroke="#D9931F" stroke-width="2"></path>
<path d="M278.787 466.045C301.067 501.247 318.356 587.159 209.273 649.186" stroke="#D9931F" stroke-width="3"></path>
<path d="M256.484 690.982C291.156 738.964 343.217 714.269 353.042 682.663C350.934 700.723 339.359 721.041 311.47 725.999C278.461 731.866 259.934 704.381 256.484 690.982Z" fill="#BB7734"></path>
<circle cx="303.082" cy="664.761" r="51.9719" transform="rotate(60.6314 303.082 664.761)" fill="#E1D53C" stroke="#151515" stroke-width="3"></circle>
<ellipse cx="298.274" cy="632.105" rx="8.02078" ry="16.0416" transform="rotate(75.8994 298.274 632.105)" fill="#EDE388"></ellipse>
<path d="M496.685 404.526L480.644 397.842C506.648 355.835 517.53 214.679 520.289 136.426C520.289 126.037 515.4 125.161 510.053 126.498C511.39 123.848 518.074 119.806 520.747 121.143C532.779 130.502 534.115 209.353 522.084 270.846C515.4 333.675 507.379 376.453 496.685 404.526Z" fill="#5F431B"></path>
<path d="M254.079 678.531C289.406 727.677 338.922 701.347 353.113 671.885C352.023 686.304 339.685 712.167 308.555 715.367C275.204 718.796 257.528 691.929 254.079 678.531Z" fill="#CBB006"></path>
<path d="M278.787 466.045C301.067 501.247 318.356 587.159 209.273 649.186" stroke="#D9931F" stroke-width="2"></path>
<path d="M463.265 401.877L465.938 395.193L498.021 408.561C503.369 412.572 498.021 417.919 494.011 415.245L463.265 401.877Z" fill="#ACA8A0"></path>
<path d="M408.456 500.801C408.456 500.801 409.793 498.127 411.13 498.127C412.466 498.127 433.855 506.148 433.855 506.148C436.529 507.485 435.192 511.495 431.182 510.158L408.456 500.801Z" fill="#ACA8A0"></path>
<path d="M233.335 506.146C243.138 515.058 258.2 539.566 240.019 566.302C221.839 593.038 207.49 601.505 202.589 602.396" stroke="#D9931F" stroke-width="2"></path>
<path d="M828.185 567.654C811.698 567.209 800.138 543.577 793.455 532.886C776.429 505.65 828.629 500.816 844.225 508.837" stroke="#D9931F" stroke-width="2"></path>
<path d="M619.67 214.727C628.582 238.297 711.909 270.872 750.676 214.727" stroke="#D9931F" stroke-width="2"></path>
<path d="M590.261 230.768C599.618 244.136 602.292 256.167 614.323 273.545" stroke="#D9931F" stroke-width="2"></path>
<path d="M560.851 252.156C564.861 256.167 562.187 296.271 582.239 308.302" stroke="#D9931F" stroke-width="2"></path>
<path d="M698.541 273.546C706.562 268.455 736.239 251.473 764.044 256.361C768.5 257.378 779.016 256.356 785.433 244.137" stroke="#D9931F" stroke-width="2"></path>
<path d="M705.226 331.028C710.573 333.701 725.573 321.237 762.708 318.997C799.842 316.756 793.454 277.556 805.485 269.535" stroke="#D9931F" stroke-width="2"></path>
</svg>