<svg width="662" height="816" viewBox="0 0 662 816" fill="none" xmlns="http://www.w3.org/2000/svg">
<path d="M544.986 715.059L626.359 244.083C626.81 241.469 629.275 239.757 631.874 239.229C661.105 233.291 673.092 140.346 649.48 121.585C456.12 -32.049 202.365 -11.4546 135.212 29.6165C134.702 29.9284 134.28 30.3306 133.918 30.8065C76.4002 106.428 104.475 143.514 129.489 151.666C132.171 152.54 134.006 155.207 133.43 157.968L42.2306 595.483C41.9054 597.043 40.8217 598.361 39.3893 599.06C-12.0472 624.159 -2.02967 678.672 8.46918 695.977C8.8906 696.672 9.48997 697.204 10.2048 697.59C169.322 783.589 386.712 802.338 495.283 815.603C559.188 815.603 565.311 738.936 546.961 720.397C545.552 718.973 544.645 717.033 544.986 715.059Z" fill="white"></path>
<path d="M18.3655 685.719C7.33352 650.617 20.4549 629.305 28.3946 623.037L326.759 694.494L526.088 715.806C539.125 732.856 534.863 763.862 531.102 777.234C527.09 789.269 504.358 790.607 493.493 789.771C460.063 790.189 366.124 785.258 257.809 762.191C149.495 739.124 53.0492 701.598 18.3655 685.719Z" fill="#B3A8E3" stroke="#151515" stroke-width="2"></path>
<path d="M452.124 744.639C352.836 750.656 182.592 730.431 101.105 717.059C270.346 782.248 518.148 804.813 529.849 779.74C538.625 760.936 534.864 735.863 529.849 725.834C526.088 748.4 479.704 743.385 452.124 744.639Z" fill="#8D8CE0"></path>
<path d="M18.3655 685.719C7.33352 650.617 20.4549 629.305 28.3946 623.037L326.759 694.494L526.088 715.806C539.125 732.856 534.863 763.862 531.102 777.234C527.09 789.269 504.358 790.607 493.493 789.771C460.063 790.189 366.124 785.258 257.809 762.191C149.495 739.124 53.0492 701.598 18.3655 685.719Z" stroke="#151515" stroke-width="2"></path>
<path d="M28.3932 624.29C32.4048 617.269 53.4659 613.007 63.495 611.753C73.1065 610.918 93.0816 609.246 96.0903 609.246C99.099 609.246 342.221 658.556 463.406 683.211C487.476 689.228 516.059 708.283 527.341 717.059C549.405 763.193 378.576 737.953 290.403 719.566C157.518 695.747 23.3787 633.065 28.3932 624.29Z" fill="#B3A7E7" stroke="#151515" stroke-width="2"></path>
<path d="M369.383 733.356L326.76 685.718L464.66 683.211C473.686 683.211 509.373 704.941 526.088 715.805C545.143 755.922 429.558 744.221 369.383 733.356Z" fill="#8D8CE0"></path>
<path d="M28.3932 624.29C32.4048 617.269 53.4659 613.007 63.495 611.753C73.1065 610.918 93.0816 609.246 96.0903 609.246C99.099 609.246 342.221 658.556 463.406 683.211C487.476 689.228 516.059 708.283 527.341 717.059C549.405 763.193 378.576 737.953 290.403 719.566C157.518 695.747 23.3787 633.065 28.3932 624.29Z" stroke="#151515" stroke-width="2"></path>
<path d="M156.802 42.1549C141.758 57.1985 132.147 86.0321 129.222 98.5685L554.204 231.902C634.437 239.424 641.959 187.607 634.437 152.923C591.312 81.7166 474.39 48.4223 420.065 42.1549C310.999 9.56032 175.606 23.3503 156.802 42.1549Z" fill="#B3A7E8" stroke="black" stroke-width="2"></path>
<path d="M287.18 35.079C197.921 22.0412 150.115 55.5574 136.743 73.944C139.752 66.9218 150.951 49.2876 156.801 41.3495L164.323 37.5873C199.425 20.5378 288.433 22.1258 328.55 25.0509C374.934 32.5727 482.245 53.3831 540.414 76.45C598.583 99.5169 628.169 135.371 635.69 150.415L636.944 160.444C596.828 110.298 528.296 79.3751 499.044 70.1818C459.931 53.1324 385.799 45.527 353.622 43.8555C345.599 51.8787 334.818 52.6309 318.52 52.6309C290.94 52.6309 289.687 41.7654 287.18 35.079Z" fill="#DDD6FD"></path>
<path d="M628.17 201.816C624.158 239.926 578.024 236.918 555.459 230.65L188.143 162.952C125.963 131.86 122.954 107.374 129.223 99.0178C197.5 53.1541 317.268 70.602 383.711 83.9741C463.943 99.0183 625.161 143.649 628.17 201.816Z" fill="#8D8CE0" stroke="black" stroke-width="2"></path>
<path d="M156.802 42.6016C141.759 57.6452 130.894 88.9872 127.969 101.524C127.969 101.524 160.563 73.0481 220.738 70.1827C273.391 67.6754 309.812 73.3907 341.087 77.7045C413.798 87.7336 481.494 105.285 530.386 125.343C579.278 145.401 599.336 160.445 599.336 160.445C614.38 170.474 624.242 184.264 626.916 194.293C631.931 213.097 640.828 179.43 634.438 149.965C591.313 78.7584 471.883 48.4219 417.559 42.1545C308.492 9.55991 175.607 23.7971 156.802 42.6016Z" stroke="black" stroke-width="2"></path>
<path d="M614.626 200.56L573.256 190.531L477.979 714.551L520.603 727.088L614.626 200.56Z" fill="#F8F9FE" stroke="black"></path>
<path d="M614.626 200.564L598.329 196.803L501.799 722.076L520.603 727.091L614.626 200.564Z" fill="#CAC9D9"></path>
<path d="M614.626 200.56L573.256 190.531L477.979 714.551L520.603 727.088L614.626 200.56Z" stroke="black" stroke-width="2"></path>
<path d="M202.18 172.98C187.972 163.787 158.804 145.4 155.796 145.4L59.2656 620.529C68.2918 632.564 92.278 631.393 103.143 629.304L202.18 172.98Z" fill="#F8F9FE" stroke="black" stroke-width="2"></path>
<path d="M202.18 172.982C187.973 163.788 183.877 160.445 180.869 160.445L83.085 629.305C91.8604 629.305 92.2783 631.395 103.143 629.305L202.18 172.982Z" fill="#CAC9D9"></path>
<path d="M202.18 172.98C187.972 163.787 158.804 145.4 155.796 145.4L59.2656 620.529C68.2918 632.564 92.278 631.393 103.143 629.304L202.18 172.98Z" stroke="black" stroke-width="2"></path>
<path d="M279.905 629.306C346.097 617.271 367.659 554.923 370.166 525.254C440.37 593.452 446.22 654.796 440.37 676.944L352.616 669.422C279.403 666.413 165.824 631.395 118.186 614.262L124.454 600.472C177.608 634.571 250.235 633.902 279.905 629.306Z" fill="#BCB25B"></path>
<path d="M401.619 131.012C290.296 103.933 220.678 124.744 199.784 138.534L199.783 141.041C180.978 166.114 182.232 238.825 243.66 319.057C292.803 383.244 300.91 401.797 298.82 403.051C292.803 436.147 262.047 451.943 247.422 455.704C124.064 498.829 97.4033 587.336 99.4927 626.198C208.81 688.379 383.232 700.581 456.779 698.909C487.869 627.703 441.318 548.891 414.155 518.386C394.933 492.059 357.742 435.395 362.756 419.348C367.771 403.302 421.677 374.217 448.004 361.681C541.274 305.518 560.413 237.153 558.324 209.991C504.167 163.857 431.288 138.116 401.619 131.012Z" fill="#93D3FF" stroke="#151515"></path>
<path d="M411.537 328.435C468.702 252.214 452.907 169.223 439.117 145.404C490.153 161.359 514.345 179.117 556.959 211.847C559.967 278.039 481.323 342.225 441.624 366.044C421.566 369.053 384.793 396.549 368.913 409.922C356.878 419.951 360.556 428.308 363.899 431.233C364.902 454.3 416.134 527.763 441.624 561.612C474.72 619.78 466.279 676.946 457.921 698.258C422.82 705.278 317.932 690.318 269.876 681.961C217.725 679.955 136.155 644.352 101.889 626.801V618.025C379.695 692.241 399 594.624 373.927 536.539C363.898 507.705 345.094 442.015 350.108 409.922C355.123 377.829 393.15 342.225 411.537 328.435Z" fill="#6BB8F0"></path>
<ellipse cx="238.876" cy="209.058" rx="28.8336" ry="46.1233" transform="rotate(-22.3699 238.876 209.058)" fill="#CAEAFF"></ellipse>
<path d="M362.647 125.344C272.385 111.303 218.479 129.524 202.181 140.389C191.149 157.437 191.316 193.459 193.406 209.339C196.331 229.815 213.375 282.355 256.5 332.5C299.625 382.645 296.5 393.5 299.965 402.399C303 415 277.5 451 251.073 457.559C230.265 462.724 189.645 485.139 172.094 496.422C117.937 541.553 101.89 601.31 100.637 625.547C103.645 628.555 163.736 651.873 193.406 663.156C202.432 669.173 284.086 683.214 323.784 689.482C350.863 692.491 422.821 695.75 455.416 697.004C460.848 686.557 469.958 656.386 462.938 619.278C455.917 582.171 424.911 535.285 410.285 516.48L377.69 465.081C353 424 360.42 416.5 365.154 411.175C385.212 388.609 427.836 369.805 441.626 362.283C452.658 356.265 473.803 340.553 482.996 333.449C545.176 280.295 557.378 229.397 555.707 210.593C528.963 188.027 452.909 139.384 362.647 125.344Z" stroke="#CAEAFF" stroke-width="3"></path>
<path d="M278.652 314.643C267.62 322.666 287.428 341.387 298.71 349.745C321.776 374.816 324.201 402.816 322.531 413.682C327.545 464.832 308.74 486.811 298.71 491.407L227.254 522.748C155.045 547.821 122.785 594.206 115.681 614.264C239.038 662.403 383.541 676.11 440.372 676.946C459.177 635.576 404.017 554.089 380.198 535.285C361.143 520.241 342.171 492.243 335.067 480.125C327.545 438.755 341.335 413.682 353.872 392.37C363.901 375.321 399.003 353.507 415.3 344.732C429.341 327.683 395.242 317.569 376.437 314.643C348.439 311.3 289.684 306.62 278.652 314.643Z" fill="#DDD268" stroke="black" stroke-width="2"></path>
<path d="M381.104 365.283C395.798 351.997 405.1 334.335 408.5 325.154C421.036 332.676 418.225 343.06 414.046 345.986C408.799 345.986 393.422 356.256 381.104 365.283C377.739 368.324 374.092 371.137 370.169 373.566C373.125 371.243 376.94 368.334 381.104 365.283Z" fill="#BCB25B"></path>
<path d="M401.621 131.014C290.298 103.935 220.679 124.746 199.786 138.536L199.785 141.043C180.98 166.116 182.234 238.827 243.662 319.059C292.805 383.246 300.912 401.799 298.822 403.053C292.805 436.149 262.049 451.945 247.424 455.706C124.066 498.831 97.4052 587.338 99.4946 626.2C208.812 688.381 383.234 700.583 456.781 698.911C487.871 627.705 441.319 548.893 414.157 518.388C394.935 492.061 357.744 435.397 362.758 419.35C367.773 403.304 421.679 374.219 448.006 361.683C541.276 305.52 560.415 237.155 558.326 209.993C504.168 163.859 431.29 138.118 401.621 131.014Z" stroke="#151515" stroke-width="2"></path>
<ellipse cx="274.386" cy="530.052" rx="13.6943" ry="21.9059" transform="rotate(64.833 274.386 530.052)" fill="#F5EEA6"></ellipse>
<ellipse cx="230.635" cy="552.132" rx="9.83696" ry="15.7355" transform="rotate(64.833 230.635 552.132)" fill="#F5EEA6"></ellipse>
<path d="M279.65 314.489C268.618 322.512 288.426 341.233 299.709 349.59C322.775 374.662 325.2 402.662 323.529 413.528C328.543 464.677 309.738 486.657 299.709 491.253L228.252 522.594C156.043 547.667 121.604 593.942 114.5 614C237.858 662.14 384.539 675.956 441.371 676.791C460.175 635.421 405.015 553.935 381.196 535.13C365.135 522.451 349.133 500.567 340.247 486.747C337.397 482.315 335.505 477.323 334.861 472.094C330.334 435.352 343.149 412.14 354.87 392.216C364.899 375.166 400.001 353.353 416.298 344.578C430.339 327.528 396.24 317.414 377.435 314.489C349.437 311.146 290.682 306.465 279.65 314.489Z" stroke="black"></path>
</svg>