<svg width="636" height="924" viewBox="0 0 636 924" fill="none" xmlns="http://www.w3.org/2000/svg">
<path d="M12.12 155.847C5.53716 133.255 19.2795 109.77 42.1999 104.442L381.234 25.6321C396.257 22.14 411.385 31.0178 415.663 45.8363L616.122 740.286C620.25 754.589 612.878 769.695 599.063 775.241L264.858 909.402C248.952 915.788 231.007 907.058 226.212 890.602L12.12 155.847Z" fill="white"></path>
<path d="M57.8672 116.255L375.923 44.7835C386.477 42.4118 397.058 48.649 400.093 59.0317L596.457 730.624C599.974 742.652 593.847 755.396 582.255 760.16L293.912 878.676C272.24 887.584 247.622 875.776 241.004 853.298L35.2961 154.628C30.3173 137.718 40.6684 120.12 57.8672 116.255Z" fill="#2F2F2F" stroke="black" stroke-width="3"></path>
<path d="M77.6995 123.42L376.306 44.1417C386.535 41.4258 397.064 47.3659 400.029 57.526L596.66 731.325C600.224 743.536 593.85 756.442 581.988 761.036L313.166 865.132C298.198 870.928 281.468 862.726 276.882 847.345L66.8231 142.83C64.3246 134.45 69.2481 125.664 77.6995 123.42Z" fill="#393939" stroke="black" stroke-width="3"></path>
<path d="M90.7533 128.884L373.283 62.9185C381.577 60.9819 389.934 65.8826 392.294 74.0665L579.746 724.165C582.029 732.082 577.926 740.438 570.266 743.473L306.838 847.85C298.12 851.305 288.314 846.555 285.619 837.573L79.066 149.063C76.4146 140.225 81.768 130.982 90.7533 128.884Z" fill="#373737" stroke="black" stroke-width="2"></path>
<path d="M104.092 137.823L365.173 73.2938C371.952 71.6183 378.844 75.5979 380.781 82.307L564.666 719.009C566.518 725.419 563.216 732.19 557.025 734.678L311.651 833.298C304.547 836.153 296.526 832.281 294.343 824.943L94.7513 154.151C92.6355 147.04 96.8899 139.603 104.092 137.823Z" fill="#0E0E0E" stroke="#0E0E0E" stroke-width="2"></path>
<rect x="191.802" y="124.068" width="96.1251" height="20.7815" rx="5" transform="rotate(-14.0626 191.802 124.068)" fill="#1D1D1D"></rect>
<path d="M248.239 664.97L200.928 509.122L380.431 86.1055L420.785 223.864L248.239 664.97Z" fill="#212121"></path>
<path d="M441.656 299.006L264.936 726.197L289.983 806.904L465.312 382.496L441.656 299.006Z" fill="#212121"></path>
</svg>